<mxfile host="app.diagrams.net" modified="2021-09-12T06:23:33.038Z" agent="5.0 (Macintosh; Intel Mac OS X 10_14_5) AppleWebKit/537.36 (KHTML, like Gecko) Chrome/92.0.4515.159 Safari/537.36" etag="Rl6O1p96nL7Lnxkefsdk" version="14.8.3" type="github">
  <diagram name="Page-1" id="929967ad-93f9-6ef4-fab6-5d389245f69c">
    <mxGraphModel dx="3148.5" dy="935" grid="1" gridSize="10" guides="1" tooltips="1" connect="1" arrows="1" fold="1" page="1" pageScale="1.5" pageWidth="1169" pageHeight="826" background="none" math="0" shadow="0">
      <root>
        <mxCell id="0" style=";html=1;" />
        <mxCell id="1" style=";html=1;" parent="0" />
        <mxCell id="l5DUgXWPw0Alo5oeBkL1-66" value="配置管理" style="rounded=0;whiteSpace=wrap;html=1;dashed=1;shadow=0;fillColor=#d5e8d4;verticalAlign=bottom;strokeColor=#82b366;fontStyle=1;fontSize=16;align=left;" parent="1" vertex="1">
          <mxGeometry x="199.94999999999996" y="2240" width="210" height="211.82" as="geometry" />
        </mxCell>
        <mxCell id="l5DUgXWPw0Alo5oeBkL1-63" value="在线服务" style="rounded=0;whiteSpace=wrap;html=1;dashed=1;shadow=0;fillColor=#d5e8d4;verticalAlign=bottom;strokeColor=#82b366;fontStyle=1;fontSize=16;align=right;" parent="1" vertex="1">
          <mxGeometry x="987.2000000000002" y="2645" width="156.87" height="135" as="geometry" />
        </mxCell>
        <mxCell id="FdiIMIpBdKavGemfurEI-6" value="" style="rounded=0;whiteSpace=wrap;html=1;dashed=1;shadow=0;fillColor=none;" parent="1" vertex="1">
          <mxGeometry x="540" y="340" width="980" height="360" as="geometry" />
        </mxCell>
        <mxCell id="Vgzjhl4OV25yT5jgVJQd-2" style="edgeStyle=orthogonalEdgeStyle;rounded=0;orthogonalLoop=1;jettySize=auto;html=1;exitX=0.5;exitY=1;exitDx=0;exitDy=0;entryX=0.5;entryY=0;entryDx=0;entryDy=0;fillColor=#ffcd5a;strokeColor=#ffcd5a;strokeWidth=2;" parent="1" source="Vgzjhl4OV25yT5jgVJQd-5" target="Vgzjhl4OV25yT5jgVJQd-10" edge="1">
          <mxGeometry relative="1" as="geometry">
            <Array as="points">
              <mxPoint x="963" y="430" />
              <mxPoint x="725" y="430" />
            </Array>
          </mxGeometry>
        </mxCell>
        <mxCell id="Vgzjhl4OV25yT5jgVJQd-3" style="edgeStyle=orthogonalEdgeStyle;rounded=0;orthogonalLoop=1;jettySize=auto;html=1;exitX=0.5;exitY=1;exitDx=0;exitDy=0;entryX=0.5;entryY=0;entryDx=0;entryDy=0;fillColor=#ffcd5a;strokeColor=#ffcd5a;strokeWidth=2;" parent="1" source="Vgzjhl4OV25yT5jgVJQd-5" target="Vgzjhl4OV25yT5jgVJQd-24" edge="1">
          <mxGeometry relative="1" as="geometry">
            <Array as="points">
              <mxPoint x="963" y="430" />
              <mxPoint x="1291" y="430" />
            </Array>
          </mxGeometry>
        </mxCell>
        <mxCell id="Vgzjhl4OV25yT5jgVJQd-4" style="rounded=0;orthogonalLoop=1;jettySize=auto;html=1;exitX=0;exitY=0.5;exitDx=0;exitDy=0;entryX=1;entryY=0.5;entryDx=0;entryDy=0;fillColor=#8db9ff;strokeColor=#8db9ff;strokeWidth=2;startArrow=classic;startFill=1;" parent="1" source="Vgzjhl4OV25yT5jgVJQd-5" target="Vgzjhl4OV25yT5jgVJQd-13" edge="1">
          <mxGeometry relative="1" as="geometry" />
        </mxCell>
        <mxCell id="Vgzjhl4OV25yT5jgVJQd-46" value="配置修改" style="edgeLabel;html=1;align=center;verticalAlign=middle;resizable=0;points=[];" parent="Vgzjhl4OV25yT5jgVJQd-4" vertex="1" connectable="0">
          <mxGeometry x="-0.7019" y="-2" relative="1" as="geometry">
            <mxPoint x="-33.33" as="offset" />
          </mxGeometry>
        </mxCell>
        <mxCell id="Fmy1u698egC3Gy5_HJqz-1" style="edgeStyle=orthogonalEdgeStyle;rounded=0;orthogonalLoop=1;jettySize=auto;html=1;exitX=0.5;exitY=1;exitDx=0;exitDy=0;entryX=0.25;entryY=0;entryDx=0;entryDy=0;strokeColor=#FFCD5A;strokeWidth=2;" parent="1" source="Vgzjhl4OV25yT5jgVJQd-5" target="FdiIMIpBdKavGemfurEI-1" edge="1">
          <mxGeometry relative="1" as="geometry">
            <Array as="points">
              <mxPoint x="963" y="430" />
              <mxPoint x="1435" y="430" />
            </Array>
          </mxGeometry>
        </mxCell>
        <mxCell id="Vgzjhl4OV25yT5jgVJQd-5" value="profile-manage-service&lt;br&gt;（配置管理）" style="rounded=1;whiteSpace=wrap;html=1;fillColor=#cce5ff;strokeColor=#36393d;" parent="1" vertex="1">
          <mxGeometry x="887.5" y="360" width="150" height="50" as="geometry" />
        </mxCell>
        <mxCell id="Vgzjhl4OV25yT5jgVJQd-6" style="edgeStyle=orthogonalEdgeStyle;rounded=0;orthogonalLoop=1;jettySize=auto;html=1;exitX=0.5;exitY=1;exitDx=0;exitDy=0;entryX=0.5;entryY=0;entryDx=0;entryDy=0;fillColor=#ffcd5a;strokeColor=#ffcd5a;strokeWidth=2;dashed=1;" parent="1" source="Vgzjhl4OV25yT5jgVJQd-5" target="Vgzjhl4OV25yT5jgVJQd-21" edge="1">
          <mxGeometry relative="1" as="geometry">
            <Array as="points">
              <mxPoint x="963" y="430" />
              <mxPoint x="995" y="430" />
            </Array>
          </mxGeometry>
        </mxCell>
        <mxCell id="Vgzjhl4OV25yT5jgVJQd-47" value="配置变更&lt;br&gt;broadcast" style="edgeLabel;html=1;align=center;verticalAlign=middle;resizable=0;points=[];" parent="Vgzjhl4OV25yT5jgVJQd-6" vertex="1" connectable="0">
          <mxGeometry x="-0.52" y="-2" relative="1" as="geometry">
            <mxPoint x="-62" y="9.999999999999998" as="offset" />
          </mxGeometry>
        </mxCell>
        <mxCell id="Vgzjhl4OV25yT5jgVJQd-7" style="edgeStyle=orthogonalEdgeStyle;rounded=0;orthogonalLoop=1;jettySize=auto;html=1;exitX=1;exitY=0.5;exitDx=0;exitDy=0;entryX=0;entryY=0.5;entryDx=0;entryDy=0;fillColor=#ff8987;strokeColor=#ff8987;entryPerimeter=0;strokeWidth=2;" parent="1" source="Vgzjhl4OV25yT5jgVJQd-10" target="Vgzjhl4OV25yT5jgVJQd-41" edge="1">
          <mxGeometry relative="1" as="geometry">
            <mxPoint x="780" y="540" as="targetPoint" />
          </mxGeometry>
        </mxCell>
        <mxCell id="FdiIMIpBdKavGemfurEI-8" style="edgeStyle=orthogonalEdgeStyle;rounded=0;orthogonalLoop=1;jettySize=auto;html=1;exitX=0.644;exitY=1.014;exitDx=0;exitDy=0;entryX=0.5;entryY=0;entryDx=0;entryDy=0;startArrow=none;startFill=0;strokeWidth=1;curved=1;exitPerimeter=0;dashed=1;strokeColor=#330000;" parent="1" source="Vgzjhl4OV25yT5jgVJQd-10" target="FdiIMIpBdKavGemfurEI-7" edge="1">
          <mxGeometry relative="1" as="geometry" />
        </mxCell>
        <mxCell id="FdiIMIpBdKavGemfurEI-13" value="数据上报" style="edgeLabel;html=1;align=center;verticalAlign=middle;resizable=0;points=[];" parent="FdiIMIpBdKavGemfurEI-8" vertex="1" connectable="0">
          <mxGeometry x="0.6817" y="-27" relative="1" as="geometry">
            <mxPoint x="34.22" y="33.4" as="offset" />
          </mxGeometry>
        </mxCell>
        <mxCell id="Vgzjhl4OV25yT5jgVJQd-10" value="ypp-gd-service&lt;br&gt;（数据预处理）" style="rounded=1;whiteSpace=wrap;html=1;fillColor=#cce5ff;strokeColor=#36393d;" parent="1" vertex="1">
          <mxGeometry x="677" y="500" width="95" height="70" as="geometry" />
        </mxCell>
        <mxCell id="Vgzjhl4OV25yT5jgVJQd-11" style="edgeStyle=orthogonalEdgeStyle;rounded=0;orthogonalLoop=1;jettySize=auto;html=1;exitX=0.5;exitY=1;exitDx=0;exitDy=0;fillColor=#ff8987;strokeColor=#ff8987;entryX=0;entryY=0.5;entryDx=0;entryDy=0;strokeWidth=2;" parent="1" source="Vgzjhl4OV25yT5jgVJQd-24" target="Vgzjhl4OV25yT5jgVJQd-14" edge="1">
          <mxGeometry relative="1" as="geometry">
            <mxPoint x="1378.75" y="860" as="sourcePoint" />
          </mxGeometry>
        </mxCell>
        <mxCell id="Vgzjhl4OV25yT5jgVJQd-13" value="MySQL" style="shape=cylinder;whiteSpace=wrap;html=1;boundedLbl=1;backgroundOutline=1;" parent="1" vertex="1">
          <mxGeometry x="740" y="367.5" width="50" height="35" as="geometry" />
        </mxCell>
        <mxCell id="FdiIMIpBdKavGemfurEI-2" style="edgeStyle=orthogonalEdgeStyle;rounded=0;orthogonalLoop=1;jettySize=auto;html=1;exitX=1;exitY=0.5;exitDx=0;exitDy=0;entryX=0.5;entryY=1;entryDx=0;entryDy=0;strokeWidth=2;strokeColor=#FF8987;" parent="1" source="Vgzjhl4OV25yT5jgVJQd-14" target="FdiIMIpBdKavGemfurEI-1" edge="1">
          <mxGeometry relative="1" as="geometry" />
        </mxCell>
        <mxCell id="Vgzjhl4OV25yT5jgVJQd-16" style="edgeStyle=orthogonalEdgeStyle;rounded=0;orthogonalLoop=1;jettySize=auto;html=1;exitX=1;exitY=0.5;exitDx=0;exitDy=0;entryX=0;entryY=0.5;entryDx=0;entryDy=0;fillColor=#ff8987;strokeColor=#ff8987;exitPerimeter=0;strokeWidth=2;" parent="1" source="Vgzjhl4OV25yT5jgVJQd-41" target="Vgzjhl4OV25yT5jgVJQd-21" edge="1">
          <mxGeometry relative="1" as="geometry">
            <mxPoint x="850" y="540" as="sourcePoint" />
          </mxGeometry>
        </mxCell>
        <mxCell id="Vgzjhl4OV25yT5jgVJQd-17" style="edgeStyle=orthogonalEdgeStyle;rounded=0;orthogonalLoop=1;jettySize=auto;html=1;exitX=0.5;exitY=1;exitDx=0;exitDy=0;entryX=0.5;entryY=0;entryDx=0;entryDy=0;strokeWidth=2;startArrow=classic;startFill=1;strokeColor=#8DB9FF;" parent="1" source="Vgzjhl4OV25yT5jgVJQd-18" target="Vgzjhl4OV25yT5jgVJQd-5" edge="1">
          <mxGeometry relative="1" as="geometry" />
        </mxCell>
        <mxCell id="Vgzjhl4OV25yT5jgVJQd-18" value="web前端" style="rounded=1;whiteSpace=wrap;html=1;fillColor=#ffecf1;strokeColor=#ff8987;" parent="1" vertex="1">
          <mxGeometry x="918.75" y="280" width="87.5" height="30" as="geometry" />
        </mxCell>
        <mxCell id="Vgzjhl4OV25yT5jgVJQd-19" style="edgeStyle=orthogonalEdgeStyle;rounded=0;orthogonalLoop=1;jettySize=auto;html=1;exitX=1;exitY=0.5;exitDx=0;exitDy=0;entryX=0;entryY=0.5;entryDx=0;entryDy=0;fillColor=#ff8987;strokeColor=#ff8987;entryPerimeter=0;strokeWidth=2;" parent="1" source="Vgzjhl4OV25yT5jgVJQd-21" target="Vgzjhl4OV25yT5jgVJQd-42" edge="1">
          <mxGeometry relative="1" as="geometry">
            <mxPoint x="1173.75" y="540" as="targetPoint" />
            <mxPoint x="1121.75" y="535" as="sourcePoint" />
          </mxGeometry>
        </mxCell>
        <mxCell id="FdiIMIpBdKavGemfurEI-9" style="edgeStyle=orthogonalEdgeStyle;curved=1;rounded=0;orthogonalLoop=1;jettySize=auto;html=1;exitX=0.295;exitY=1.004;exitDx=0;exitDy=0;entryX=0.5;entryY=0;entryDx=0;entryDy=0;startArrow=none;startFill=0;strokeWidth=1;exitPerimeter=0;dashed=1;strokeColor=#330000;" parent="1" source="Vgzjhl4OV25yT5jgVJQd-21" target="FdiIMIpBdKavGemfurEI-7" edge="1">
          <mxGeometry relative="1" as="geometry" />
        </mxCell>
        <mxCell id="Vgzjhl4OV25yT5jgVJQd-21" value="spark streaming&lt;br&gt;&lt;div style=&quot;text-align: left&quot;&gt;&lt;span&gt;&lt;br&gt;&lt;/span&gt;&lt;/div&gt;&lt;div style=&quot;text-align: left&quot;&gt;&lt;span&gt;算子：&lt;/span&gt;&lt;/div&gt;&lt;div style=&quot;text-align: left&quot;&gt;&lt;span&gt;1.count&lt;/span&gt;&lt;/div&gt;&lt;div style=&quot;text-align: left&quot;&gt;&lt;span&gt;2.sum&lt;/span&gt;&lt;/div&gt;&lt;div style=&quot;text-align: left&quot;&gt;&lt;span&gt;3.list&lt;/span&gt;&lt;/div&gt;&lt;div style=&quot;text-align: left&quot;&gt;&lt;span&gt;4.set&lt;/span&gt;&lt;/div&gt;&lt;div style=&quot;text-align: left&quot;&gt;&lt;span&gt;5.....&lt;/span&gt;&lt;/div&gt;&lt;div style=&quot;text-align: left&quot;&gt;&lt;span&gt;&lt;br&gt;&lt;/span&gt;&lt;/div&gt;&lt;div style=&quot;text-align: left&quot;&gt;&lt;span&gt;（计算中间特征）&lt;/span&gt;&lt;/div&gt;" style="rounded=1;whiteSpace=wrap;html=1;fillColor=#cce5ff;strokeColor=#36393d;verticalAlign=top;" parent="1" vertex="1">
          <mxGeometry x="940" y="455" width="110" height="160" as="geometry" />
        </mxCell>
        <mxCell id="Vgzjhl4OV25yT5jgVJQd-22" style="edgeStyle=orthogonalEdgeStyle;rounded=0;orthogonalLoop=1;jettySize=auto;html=1;exitX=0.5;exitY=1;exitDx=0;exitDy=0;entryX=0;entryY=0.5;entryDx=0;entryDy=0;fillColor=#ff8987;strokeColor=#ff8987;entryPerimeter=0;strokeWidth=2;" parent="1" source="Vgzjhl4OV25yT5jgVJQd-24" target="Vgzjhl4OV25yT5jgVJQd-43" edge="1">
          <mxGeometry relative="1" as="geometry">
            <mxPoint x="1393.75" y="630" as="targetPoint" />
          </mxGeometry>
        </mxCell>
        <mxCell id="FdiIMIpBdKavGemfurEI-10" style="edgeStyle=orthogonalEdgeStyle;curved=1;rounded=0;orthogonalLoop=1;jettySize=auto;html=1;exitX=0.25;exitY=1;exitDx=0;exitDy=0;entryX=0.5;entryY=0;entryDx=0;entryDy=0;startArrow=none;startFill=0;strokeWidth=1;dashed=1;strokeColor=#330000;" parent="1" source="Vgzjhl4OV25yT5jgVJQd-24" target="FdiIMIpBdKavGemfurEI-7" edge="1">
          <mxGeometry relative="1" as="geometry" />
        </mxCell>
        <mxCell id="Vgzjhl4OV25yT5jgVJQd-24" value="profile-process-service&lt;br&gt;（特征计算及存储）" style="rounded=1;whiteSpace=wrap;html=1;fillColor=#cce5ff;strokeColor=#36393d;" parent="1" vertex="1">
          <mxGeometry x="1220.75" y="500" width="140" height="70" as="geometry" />
        </mxCell>
        <mxCell id="Vgzjhl4OV25yT5jgVJQd-25" style="edgeStyle=orthogonalEdgeStyle;rounded=0;orthogonalLoop=1;jettySize=auto;html=1;exitX=1;exitY=0.5;exitDx=0;exitDy=0;entryX=0;entryY=0.5;entryDx=0;entryDy=0;fillColor=#ff8987;strokeColor=#ff8987;exitPerimeter=0;strokeWidth=2;" parent="1" source="Vgzjhl4OV25yT5jgVJQd-42" target="Vgzjhl4OV25yT5jgVJQd-24" edge="1">
          <mxGeometry relative="1" as="geometry">
            <mxPoint x="1243.75" y="540" as="sourcePoint" />
          </mxGeometry>
        </mxCell>
        <mxCell id="Vgzjhl4OV25yT5jgVJQd-26" value="" style="endArrow=classic;html=1;fillColor=#ff8987;strokeColor=#ff8987;strokeWidth=2;" parent="1" edge="1">
          <mxGeometry width="50" height="50" relative="1" as="geometry">
            <mxPoint x="540" y="277" as="sourcePoint" />
            <mxPoint x="720" y="277" as="targetPoint" />
          </mxGeometry>
        </mxCell>
        <mxCell id="Vgzjhl4OV25yT5jgVJQd-27" value="&lt;font style=&quot;font-size: 10px&quot;&gt;表示数据流向&lt;/font&gt;" style="text;html=1;align=center;verticalAlign=middle;resizable=0;points=[];labelBackgroundColor=#ffffff;childText;" parent="Vgzjhl4OV25yT5jgVJQd-26" vertex="1" connectable="0">
          <mxGeometry x="0.0714" y="-1" relative="1" as="geometry">
            <mxPoint x="-5" y="-1" as="offset" />
          </mxGeometry>
        </mxCell>
        <mxCell id="Vgzjhl4OV25yT5jgVJQd-28" style="edgeStyle=orthogonalEdgeStyle;rounded=0;orthogonalLoop=1;jettySize=auto;html=1;exitX=1;exitY=0.5;exitDx=0;exitDy=0;exitPerimeter=0;entryX=0;entryY=0.5;entryDx=0;entryDy=0;fillColor=#ff8987;strokeColor=#ff8987;strokeWidth=2;" parent="1" source="Vgzjhl4OV25yT5jgVJQd-39" target="Vgzjhl4OV25yT5jgVJQd-10" edge="1">
          <mxGeometry relative="1" as="geometry">
            <mxPoint x="573" y="540" as="sourcePoint" />
          </mxGeometry>
        </mxCell>
        <mxCell id="Vgzjhl4OV25yT5jgVJQd-34" value="" style="endArrow=classic;html=1;fillColor=#8db9ff;strokeColor=#8db9ff;strokeWidth=2;" parent="1" edge="1">
          <mxGeometry width="50" height="50" relative="1" as="geometry">
            <mxPoint x="540" y="292" as="sourcePoint" />
            <mxPoint x="720" y="292" as="targetPoint" />
          </mxGeometry>
        </mxCell>
        <mxCell id="Vgzjhl4OV25yT5jgVJQd-35" value="表示配置变更持久化" style="text;html=1;align=center;verticalAlign=middle;resizable=0;points=[];labelBackgroundColor=#ffffff;childText;" parent="Vgzjhl4OV25yT5jgVJQd-34" vertex="1" connectable="0">
          <mxGeometry x="0.0714" y="-1" relative="1" as="geometry">
            <mxPoint x="-5" y="-1" as="offset" />
          </mxGeometry>
        </mxCell>
        <mxCell id="Vgzjhl4OV25yT5jgVJQd-36" value="" style="endArrow=classic;html=1;fillColor=#ffcd5a;strokeColor=#ffcd5a;strokeWidth=2;" parent="1" edge="1">
          <mxGeometry width="50" height="50" relative="1" as="geometry">
            <mxPoint x="540" y="308" as="sourcePoint" />
            <mxPoint x="720" y="308" as="targetPoint" />
          </mxGeometry>
        </mxCell>
        <mxCell id="Vgzjhl4OV25yT5jgVJQd-37" value="表示各子服务配置变更" style="text;html=1;align=center;verticalAlign=middle;resizable=0;points=[];labelBackgroundColor=#ffffff;childText;" parent="Vgzjhl4OV25yT5jgVJQd-36" vertex="1" connectable="0">
          <mxGeometry x="0.0714" y="-1" relative="1" as="geometry">
            <mxPoint x="-5" y="-1" as="offset" />
          </mxGeometry>
        </mxCell>
        <mxCell id="Vgzjhl4OV25yT5jgVJQd-39" value="源数据&lt;br&gt;（埋点&lt;br&gt;/maserati&lt;br&gt;/后端json）" style="strokeWidth=2;html=1;shape=mxgraph.flowchart.direct_data;whiteSpace=wrap;" parent="1" vertex="1">
          <mxGeometry x="556" y="501.25" width="90" height="67.5" as="geometry" />
        </mxCell>
        <mxCell id="Vgzjhl4OV25yT5jgVJQd-41" value="用户行为数据topic" style="strokeWidth=2;html=1;shape=mxgraph.flowchart.direct_data;whiteSpace=wrap;" parent="1" vertex="1">
          <mxGeometry x="801.5" y="515" width="110" height="40" as="geometry" />
        </mxCell>
        <mxCell id="Vgzjhl4OV25yT5jgVJQd-42" value="特征中间结果topic" style="strokeWidth=2;html=1;shape=mxgraph.flowchart.direct_data;whiteSpace=wrap;" parent="1" vertex="1">
          <mxGeometry x="1080" y="515" width="110" height="40" as="geometry" />
        </mxCell>
        <mxCell id="Vgzjhl4OV25yT5jgVJQd-43" value="特征数据topic" style="strokeWidth=2;html=1;shape=mxgraph.flowchart.direct_data;whiteSpace=wrap;" parent="1" vertex="1">
          <mxGeometry x="1357.5" y="660" width="87.5" height="30" as="geometry" />
        </mxCell>
        <mxCell id="FdiIMIpBdKavGemfurEI-4" style="edgeStyle=orthogonalEdgeStyle;rounded=0;orthogonalLoop=1;jettySize=auto;html=1;exitX=0.5;exitY=0;exitDx=0;exitDy=0;entryX=0.5;entryY=1;entryDx=0;entryDy=0;startArrow=classic;startFill=1;fillColor=#f8cecc;strokeColor=#FF8987;strokeWidth=2;" parent="1" source="FdiIMIpBdKavGemfurEI-1" target="FdiIMIpBdKavGemfurEI-3" edge="1">
          <mxGeometry relative="1" as="geometry" />
        </mxCell>
        <mxCell id="FdiIMIpBdKavGemfurEI-20" style="edgeStyle=orthogonalEdgeStyle;curved=1;rounded=0;orthogonalLoop=1;jettySize=auto;html=1;exitX=0.25;exitY=1;exitDx=0;exitDy=0;entryX=0.5;entryY=0;entryDx=0;entryDy=0;dashed=1;startArrow=none;startFill=0;strokeColor=#330000;strokeWidth=1;" parent="1" source="FdiIMIpBdKavGemfurEI-1" target="FdiIMIpBdKavGemfurEI-7" edge="1">
          <mxGeometry relative="1" as="geometry" />
        </mxCell>
        <mxCell id="FdiIMIpBdKavGemfurEI-1" value="profile-service&lt;br&gt;（特征查询）" style="rounded=1;whiteSpace=wrap;html=1;fillColor=#cce5ff;strokeColor=#36393d;" parent="1" vertex="1">
          <mxGeometry x="1410" y="500" width="100" height="70" as="geometry" />
        </mxCell>
        <mxCell id="FdiIMIpBdKavGemfurEI-3" value="query&lt;br&gt;(get features)" style="rounded=1;whiteSpace=wrap;html=1;fillColor=#ffecf1;strokeColor=#ff8987;" parent="1" vertex="1">
          <mxGeometry x="1411.5" y="265" width="97" height="60" as="geometry" />
        </mxCell>
        <mxCell id="FdiIMIpBdKavGemfurEI-7" value="CAT&lt;br&gt;(特征监控/报警)" style="rounded=1;whiteSpace=wrap;html=1;fillColor=#ffecf1;strokeColor=#ff8987;" parent="1" vertex="1">
          <mxGeometry x="1037.5" y="760" width="140" height="60" as="geometry" />
        </mxCell>
        <mxCell id="FdiIMIpBdKavGemfurEI-16" value="" style="endArrow=classic;html=1;fillColor=#ffcd5a;strokeWidth=1;strokeColor=#330000;dashed=1;" parent="1" edge="1">
          <mxGeometry width="50" height="50" relative="1" as="geometry">
            <mxPoint x="540" y="324" as="sourcePoint" />
            <mxPoint x="720" y="324" as="targetPoint" />
          </mxGeometry>
        </mxCell>
        <mxCell id="FdiIMIpBdKavGemfurEI-17" value="数据上报" style="text;html=1;align=center;verticalAlign=middle;resizable=0;points=[];labelBackgroundColor=#ffffff;childText;" parent="FdiIMIpBdKavGemfurEI-16" vertex="1" connectable="0">
          <mxGeometry x="0.0714" y="-1" relative="1" as="geometry">
            <mxPoint x="-5" y="-1" as="offset" />
          </mxGeometry>
        </mxCell>
        <mxCell id="Vgzjhl4OV25yT5jgVJQd-14" value="HBase" style="shape=cylinder;whiteSpace=wrap;html=1;boundedLbl=1;backgroundOutline=1;" parent="1" vertex="1">
          <mxGeometry x="1357.5" y="600" width="62.5" height="40" as="geometry" />
        </mxCell>
        <mxCell id="Fmy1u698egC3Gy5_HJqz-2" value="" style="rounded=0;whiteSpace=wrap;html=1;dashed=1;shadow=0;fillColor=none;" parent="1" vertex="1">
          <mxGeometry x="600" y="1060" width="740" height="370" as="geometry" />
        </mxCell>
        <mxCell id="Fmy1u698egC3Gy5_HJqz-3" style="edgeStyle=orthogonalEdgeStyle;rounded=0;orthogonalLoop=1;jettySize=auto;html=1;exitX=0.5;exitY=1;exitDx=0;exitDy=0;entryX=0.5;entryY=0;entryDx=0;entryDy=0;fillColor=#ffcd5a;strokeColor=#ffcd5a;strokeWidth=2;" parent="1" source="Fmy1u698egC3Gy5_HJqz-8" target="Fmy1u698egC3Gy5_HJqz-15" edge="1">
          <mxGeometry relative="1" as="geometry">
            <Array as="points">
              <mxPoint x="1003" y="1150" />
              <mxPoint x="805" y="1150" />
            </Array>
          </mxGeometry>
        </mxCell>
        <mxCell id="Fmy1u698egC3Gy5_HJqz-5" style="rounded=0;orthogonalLoop=1;jettySize=auto;html=1;exitX=0;exitY=0.5;exitDx=0;exitDy=0;entryX=1;entryY=0.5;entryDx=0;entryDy=0;fillColor=#8db9ff;strokeColor=#8db9ff;strokeWidth=2;startArrow=classic;startFill=1;" parent="1" source="Fmy1u698egC3Gy5_HJqz-8" target="Fmy1u698egC3Gy5_HJqz-18" edge="1">
          <mxGeometry relative="1" as="geometry" />
        </mxCell>
        <mxCell id="Fmy1u698egC3Gy5_HJqz-6" value="配置修改" style="edgeLabel;html=1;align=center;verticalAlign=middle;resizable=0;points=[];" parent="Fmy1u698egC3Gy5_HJqz-5" vertex="1" connectable="0">
          <mxGeometry x="-0.7019" y="-2" relative="1" as="geometry">
            <mxPoint x="-33.33" as="offset" />
          </mxGeometry>
        </mxCell>
        <mxCell id="Fmy1u698egC3Gy5_HJqz-7" style="edgeStyle=orthogonalEdgeStyle;rounded=0;orthogonalLoop=1;jettySize=auto;html=1;exitX=0.5;exitY=1;exitDx=0;exitDy=0;entryX=0.25;entryY=0;entryDx=0;entryDy=0;strokeColor=#FFCD5A;strokeWidth=2;" parent="1" source="Fmy1u698egC3Gy5_HJqz-8" target="Fmy1u698egC3Gy5_HJqz-44" edge="1">
          <mxGeometry relative="1" as="geometry">
            <Array as="points">
              <mxPoint x="1003" y="1150" />
              <mxPoint x="1254" y="1150" />
            </Array>
          </mxGeometry>
        </mxCell>
        <mxCell id="Fmy1u698egC3Gy5_HJqz-8" value="manage-service&lt;br&gt;（配置管理）" style="rounded=1;whiteSpace=wrap;html=1;fillColor=#cce5ff;strokeColor=#36393d;" parent="1" vertex="1">
          <mxGeometry x="927.5" y="1080" width="150" height="50" as="geometry" />
        </mxCell>
        <mxCell id="Fmy1u698egC3Gy5_HJqz-9" style="edgeStyle=orthogonalEdgeStyle;rounded=0;orthogonalLoop=1;jettySize=auto;html=1;exitX=0.5;exitY=1;exitDx=0;exitDy=0;entryX=0.5;entryY=0;entryDx=0;entryDy=0;fillColor=#ffcd5a;strokeColor=#ffcd5a;strokeWidth=2;dashed=1;" parent="1" source="Fmy1u698egC3Gy5_HJqz-8" target="Fmy1u698egC3Gy5_HJqz-29" edge="1">
          <mxGeometry relative="1" as="geometry">
            <mxPoint x="1059.75" y="1190" as="targetPoint" />
            <Array as="points">
              <mxPoint x="1003" y="1150" />
              <mxPoint x="1080" y="1150" />
            </Array>
          </mxGeometry>
        </mxCell>
        <mxCell id="Fmy1u698egC3Gy5_HJqz-10" value="配置变更&lt;br&gt;broadcast" style="edgeLabel;html=1;align=center;verticalAlign=middle;resizable=0;points=[];" parent="Fmy1u698egC3Gy5_HJqz-9" vertex="1" connectable="0">
          <mxGeometry x="-0.52" y="-2" relative="1" as="geometry">
            <mxPoint x="-49.58" as="offset" />
          </mxGeometry>
        </mxCell>
        <mxCell id="Fmy1u698egC3Gy5_HJqz-11" style="edgeStyle=orthogonalEdgeStyle;rounded=0;orthogonalLoop=1;jettySize=auto;html=1;exitX=1;exitY=0.5;exitDx=0;exitDy=0;entryX=0;entryY=0.5;entryDx=0;entryDy=0;fillColor=#ff8987;strokeColor=#ff8987;entryPerimeter=0;strokeWidth=2;" parent="1" source="Fmy1u698egC3Gy5_HJqz-15" target="Fmy1u698egC3Gy5_HJqz-39" edge="1">
          <mxGeometry relative="1" as="geometry">
            <mxPoint x="820" y="1260" as="targetPoint" />
          </mxGeometry>
        </mxCell>
        <mxCell id="Fmy1u698egC3Gy5_HJqz-13" style="edgeStyle=orthogonalEdgeStyle;rounded=0;orthogonalLoop=1;jettySize=auto;html=1;exitX=0.5;exitY=1;exitDx=0;exitDy=0;entryX=0.5;entryY=0;entryDx=0;entryDy=0;startArrow=none;startFill=0;strokeWidth=1;curved=1;dashed=1;strokeColor=#330000;" parent="1" source="Fmy1u698egC3Gy5_HJqz-15" target="Fmy1u698egC3Gy5_HJqz-46" edge="1">
          <mxGeometry relative="1" as="geometry" />
        </mxCell>
        <mxCell id="Fmy1u698egC3Gy5_HJqz-14" value="数据上报" style="edgeLabel;html=1;align=center;verticalAlign=middle;resizable=0;points=[];" parent="Fmy1u698egC3Gy5_HJqz-13" vertex="1" connectable="0">
          <mxGeometry x="0.6817" y="-27" relative="1" as="geometry">
            <mxPoint x="27" y="33.4" as="offset" />
          </mxGeometry>
        </mxCell>
        <mxCell id="Fmy1u698egC3Gy5_HJqz-15" value="data-clean-service&lt;br&gt;（数据预处理）" style="rounded=1;whiteSpace=wrap;html=1;fillColor=#cce5ff;strokeColor=#36393d;" parent="1" vertex="1">
          <mxGeometry x="750" y="1220" width="110" height="70" as="geometry" />
        </mxCell>
        <mxCell id="Fmy1u698egC3Gy5_HJqz-16" style="edgeStyle=orthogonalEdgeStyle;rounded=0;orthogonalLoop=1;jettySize=auto;html=1;exitX=1;exitY=0.5;exitDx=0;exitDy=0;fillColor=#ff8987;strokeColor=#ff8987;entryX=0;entryY=0.5;entryDx=0;entryDy=0;strokeWidth=2;" parent="1" source="Fmy1u698egC3Gy5_HJqz-29" target="Fmy1u698egC3Gy5_HJqz-49" edge="1">
          <mxGeometry relative="1" as="geometry">
            <mxPoint x="1079.5" y="1580" as="sourcePoint" />
          </mxGeometry>
        </mxCell>
        <mxCell id="Fmy1u698egC3Gy5_HJqz-18" value="MySQL" style="shape=cylinder;whiteSpace=wrap;html=1;boundedLbl=1;backgroundOutline=1;" parent="1" vertex="1">
          <mxGeometry x="780" y="1087.5" width="50" height="35" as="geometry" />
        </mxCell>
        <mxCell id="Fmy1u698egC3Gy5_HJqz-19" style="edgeStyle=orthogonalEdgeStyle;rounded=0;orthogonalLoop=1;jettySize=auto;html=1;exitX=1;exitY=0.5;exitDx=0;exitDy=0;entryX=0.5;entryY=1;entryDx=0;entryDy=0;strokeWidth=2;strokeColor=#FF8987;" parent="1" source="Fmy1u698egC3Gy5_HJqz-49" target="Fmy1u698egC3Gy5_HJqz-44" edge="1">
          <mxGeometry relative="1" as="geometry" />
        </mxCell>
        <mxCell id="Fmy1u698egC3Gy5_HJqz-21" style="edgeStyle=orthogonalEdgeStyle;rounded=0;orthogonalLoop=1;jettySize=auto;html=1;exitX=1;exitY=0.5;exitDx=0;exitDy=0;entryX=0;entryY=0.5;entryDx=0;entryDy=0;fillColor=#ff8987;strokeColor=#ff8987;exitPerimeter=0;strokeWidth=2;" parent="1" source="Fmy1u698egC3Gy5_HJqz-39" target="Fmy1u698egC3Gy5_HJqz-29" edge="1">
          <mxGeometry relative="1" as="geometry">
            <mxPoint x="890" y="1260" as="sourcePoint" />
            <mxPoint x="958.75" y="1255" as="targetPoint" />
          </mxGeometry>
        </mxCell>
        <mxCell id="Fmy1u698egC3Gy5_HJqz-22" style="edgeStyle=orthogonalEdgeStyle;rounded=0;orthogonalLoop=1;jettySize=auto;html=1;exitX=0.5;exitY=1;exitDx=0;exitDy=0;entryX=0.5;entryY=0;entryDx=0;entryDy=0;strokeWidth=2;startArrow=classic;startFill=1;strokeColor=#8DB9FF;" parent="1" source="Fmy1u698egC3Gy5_HJqz-23" target="Fmy1u698egC3Gy5_HJqz-8" edge="1">
          <mxGeometry relative="1" as="geometry" />
        </mxCell>
        <mxCell id="Fmy1u698egC3Gy5_HJqz-23" value="web前端" style="rounded=1;whiteSpace=wrap;html=1;fillColor=#ffecf1;strokeColor=#ff8987;" parent="1" vertex="1">
          <mxGeometry x="958.75" y="1000" width="87.5" height="30" as="geometry" />
        </mxCell>
        <mxCell id="Fmy1u698egC3Gy5_HJqz-27" style="edgeStyle=orthogonalEdgeStyle;rounded=0;orthogonalLoop=1;jettySize=auto;html=1;exitX=1;exitY=0.5;exitDx=0;exitDy=0;entryX=0;entryY=0.5;entryDx=0;entryDy=0;fillColor=#ff8987;strokeColor=#ff8987;entryPerimeter=0;strokeWidth=2;" parent="1" source="Fmy1u698egC3Gy5_HJqz-29" target="Fmy1u698egC3Gy5_HJqz-41" edge="1">
          <mxGeometry relative="1" as="geometry">
            <mxPoint x="1094.5" y="1350" as="targetPoint" />
          </mxGeometry>
        </mxCell>
        <mxCell id="Fmy1u698egC3Gy5_HJqz-28" style="edgeStyle=orthogonalEdgeStyle;curved=1;rounded=0;orthogonalLoop=1;jettySize=auto;html=1;exitX=0.5;exitY=1;exitDx=0;exitDy=0;entryX=0.5;entryY=0;entryDx=0;entryDy=0;startArrow=none;startFill=0;strokeWidth=1;dashed=1;strokeColor=#330000;" parent="1" source="Fmy1u698egC3Gy5_HJqz-29" target="Fmy1u698egC3Gy5_HJqz-46" edge="1">
          <mxGeometry relative="1" as="geometry" />
        </mxCell>
        <mxCell id="Fmy1u698egC3Gy5_HJqz-29" value="flink&lt;br&gt;&lt;div style=&quot;text-align: left&quot;&gt;&lt;br&gt;&lt;/div&gt;&lt;div style=&quot;text-align: left&quot;&gt;算子：&lt;/div&gt;&lt;div style=&quot;text-align: left&quot;&gt;1.count&lt;/div&gt;&lt;div style=&quot;text-align: left&quot;&gt;2.sum&lt;/div&gt;&lt;div style=&quot;text-align: left&quot;&gt;3.list&lt;/div&gt;&lt;div style=&quot;text-align: left&quot;&gt;4.set&lt;/div&gt;&lt;div style=&quot;text-align: left&quot;&gt;5.....&lt;/div&gt;&lt;div style=&quot;text-align: left&quot;&gt;&lt;br&gt;&lt;/div&gt;&lt;div style=&quot;text-align: left&quot;&gt;（特征计算）&lt;/div&gt;" style="rounded=1;whiteSpace=wrap;html=1;fillColor=#cce5ff;strokeColor=#36393d;" parent="1" vertex="1">
          <mxGeometry x="1030" y="1180" width="100" height="150" as="geometry" />
        </mxCell>
        <mxCell id="Fmy1u698egC3Gy5_HJqz-31" value="" style="endArrow=classic;html=1;fillColor=#ff8987;strokeColor=#ff8987;strokeWidth=2;" parent="1" edge="1">
          <mxGeometry width="50" height="50" relative="1" as="geometry">
            <mxPoint x="600" y="1000" as="sourcePoint" />
            <mxPoint x="780" y="1000" as="targetPoint" />
          </mxGeometry>
        </mxCell>
        <mxCell id="Fmy1u698egC3Gy5_HJqz-32" value="&lt;font style=&quot;font-size: 10px&quot;&gt;表示数据流向&lt;/font&gt;" style="text;html=1;align=center;verticalAlign=middle;resizable=0;points=[];labelBackgroundColor=#ffffff;childText;" parent="Fmy1u698egC3Gy5_HJqz-31" vertex="1" connectable="0">
          <mxGeometry x="0.0714" y="-1" relative="1" as="geometry">
            <mxPoint x="-5" y="-1" as="offset" />
          </mxGeometry>
        </mxCell>
        <mxCell id="Fmy1u698egC3Gy5_HJqz-33" style="edgeStyle=orthogonalEdgeStyle;rounded=0;orthogonalLoop=1;jettySize=auto;html=1;exitX=1;exitY=0.5;exitDx=0;exitDy=0;exitPerimeter=0;entryX=0;entryY=0.5;entryDx=0;entryDy=0;fillColor=#ff8987;strokeColor=#ff8987;strokeWidth=2;" parent="1" source="Fmy1u698egC3Gy5_HJqz-38" target="Fmy1u698egC3Gy5_HJqz-15" edge="1">
          <mxGeometry relative="1" as="geometry">
            <mxPoint x="653" y="1260" as="sourcePoint" />
          </mxGeometry>
        </mxCell>
        <mxCell id="Fmy1u698egC3Gy5_HJqz-34" value="" style="endArrow=classic;html=1;fillColor=#8db9ff;strokeColor=#8db9ff;strokeWidth=2;" parent="1" edge="1">
          <mxGeometry width="50" height="50" relative="1" as="geometry">
            <mxPoint x="600" y="1015" as="sourcePoint" />
            <mxPoint x="780" y="1015" as="targetPoint" />
          </mxGeometry>
        </mxCell>
        <mxCell id="Fmy1u698egC3Gy5_HJqz-35" value="表示配置变更持久化" style="text;html=1;align=center;verticalAlign=middle;resizable=0;points=[];labelBackgroundColor=#ffffff;childText;" parent="Fmy1u698egC3Gy5_HJqz-34" vertex="1" connectable="0">
          <mxGeometry x="0.0714" y="-1" relative="1" as="geometry">
            <mxPoint x="-5" y="-1" as="offset" />
          </mxGeometry>
        </mxCell>
        <mxCell id="Fmy1u698egC3Gy5_HJqz-36" value="" style="endArrow=classic;html=1;fillColor=#ffcd5a;strokeColor=#ffcd5a;strokeWidth=2;" parent="1" edge="1">
          <mxGeometry width="50" height="50" relative="1" as="geometry">
            <mxPoint x="600" y="1031" as="sourcePoint" />
            <mxPoint x="780" y="1031" as="targetPoint" />
          </mxGeometry>
        </mxCell>
        <mxCell id="Fmy1u698egC3Gy5_HJqz-37" value="表示各子服务配置变更" style="text;html=1;align=center;verticalAlign=middle;resizable=0;points=[];labelBackgroundColor=#ffffff;childText;" parent="Fmy1u698egC3Gy5_HJqz-36" vertex="1" connectable="0">
          <mxGeometry x="0.0714" y="-1" relative="1" as="geometry">
            <mxPoint x="-5" y="-1" as="offset" />
          </mxGeometry>
        </mxCell>
        <mxCell id="Fmy1u698egC3Gy5_HJqz-38" value="源数据&lt;br&gt;（埋点&lt;br&gt;/binlog&lt;br&gt;/后端json）" style="strokeWidth=2;html=1;shape=mxgraph.flowchart.direct_data;whiteSpace=wrap;" parent="1" vertex="1">
          <mxGeometry x="620" y="1216.25" width="96" height="77.5" as="geometry" />
        </mxCell>
        <mxCell id="Fmy1u698egC3Gy5_HJqz-39" value="用户行为数据topic" style="strokeWidth=2;html=1;shape=mxgraph.flowchart.direct_data;whiteSpace=wrap;" parent="1" vertex="1">
          <mxGeometry x="887.5" y="1235" width="110" height="40" as="geometry" />
        </mxCell>
        <mxCell id="Fmy1u698egC3Gy5_HJqz-41" value="特征数据topic" style="strokeWidth=2;html=1;shape=mxgraph.flowchart.direct_data;whiteSpace=wrap;" parent="1" vertex="1">
          <mxGeometry x="1177.5" y="1390" width="82.5" height="30" as="geometry" />
        </mxCell>
        <mxCell id="Fmy1u698egC3Gy5_HJqz-42" style="edgeStyle=orthogonalEdgeStyle;rounded=0;orthogonalLoop=1;jettySize=auto;html=1;exitX=0.5;exitY=0;exitDx=0;exitDy=0;entryX=0.5;entryY=1;entryDx=0;entryDy=0;startArrow=classic;startFill=1;fillColor=#f8cecc;strokeColor=#FF8987;strokeWidth=2;" parent="1" source="Fmy1u698egC3Gy5_HJqz-44" target="Fmy1u698egC3Gy5_HJqz-45" edge="1">
          <mxGeometry relative="1" as="geometry" />
        </mxCell>
        <mxCell id="Fmy1u698egC3Gy5_HJqz-43" style="edgeStyle=orthogonalEdgeStyle;curved=1;rounded=0;orthogonalLoop=1;jettySize=auto;html=1;exitX=0.25;exitY=1;exitDx=0;exitDy=0;entryX=0.5;entryY=0;entryDx=0;entryDy=0;dashed=1;startArrow=none;startFill=0;strokeColor=#330000;strokeWidth=1;" parent="1" source="Fmy1u698egC3Gy5_HJqz-44" target="Fmy1u698egC3Gy5_HJqz-46" edge="1">
          <mxGeometry relative="1" as="geometry" />
        </mxCell>
        <mxCell id="Fmy1u698egC3Gy5_HJqz-44" value="kv-service&lt;br&gt;（特征查询）" style="rounded=1;whiteSpace=wrap;html=1;fillColor=#cce5ff;strokeColor=#36393d;" parent="1" vertex="1">
          <mxGeometry x="1230" y="1220" width="96.25" height="70" as="geometry" />
        </mxCell>
        <mxCell id="Fmy1u698egC3Gy5_HJqz-45" value="query&lt;br&gt;(get features)" style="rounded=1;whiteSpace=wrap;html=1;fillColor=#ffecf1;strokeColor=#ff8987;" parent="1" vertex="1">
          <mxGeometry x="1227.75" y="990" width="100.75" height="50" as="geometry" />
        </mxCell>
        <mxCell id="Fmy1u698egC3Gy5_HJqz-46" value="CAT&lt;br&gt;(告警配置)" style="rounded=1;whiteSpace=wrap;html=1;fillColor=#ffecf1;strokeColor=#ff8987;" parent="1" vertex="1">
          <mxGeometry x="972.75" y="1450" width="94" height="50" as="geometry" />
        </mxCell>
        <mxCell id="Fmy1u698egC3Gy5_HJqz-47" value="" style="endArrow=classic;html=1;fillColor=#ffcd5a;strokeWidth=1;strokeColor=#330000;dashed=1;" parent="1" edge="1">
          <mxGeometry width="50" height="50" relative="1" as="geometry">
            <mxPoint x="600" y="1047" as="sourcePoint" />
            <mxPoint x="780" y="1047" as="targetPoint" />
          </mxGeometry>
        </mxCell>
        <mxCell id="Fmy1u698egC3Gy5_HJqz-48" value="数据上报" style="text;html=1;align=center;verticalAlign=middle;resizable=0;points=[];labelBackgroundColor=#ffffff;childText;" parent="Fmy1u698egC3Gy5_HJqz-47" vertex="1" connectable="0">
          <mxGeometry x="0.0714" y="-1" relative="1" as="geometry">
            <mxPoint x="-5" y="-1" as="offset" />
          </mxGeometry>
        </mxCell>
        <mxCell id="Fmy1u698egC3Gy5_HJqz-49" value="HBase" style="shape=cylinder;whiteSpace=wrap;html=1;boundedLbl=1;backgroundOutline=1;" parent="1" vertex="1">
          <mxGeometry x="1177.5" y="1330" width="72.5" height="45" as="geometry" />
        </mxCell>
        <mxCell id="l5DUgXWPw0Alo5oeBkL1-1" value="实时特征处理链路" style="rounded=0;whiteSpace=wrap;html=1;dashed=1;shadow=0;fillColor=#d5e8d4;verticalAlign=bottom;strokeColor=#82b366;fontStyle=1;fontSize=16;align=left;" parent="1" vertex="1">
          <mxGeometry x="10" y="2504.64" width="760" height="205.36" as="geometry" />
        </mxCell>
        <mxCell id="l5DUgXWPw0Alo5oeBkL1-2" style="edgeStyle=orthogonalEdgeStyle;rounded=0;orthogonalLoop=1;jettySize=auto;html=1;exitX=0.5;exitY=1;exitDx=0;exitDy=0;entryX=0.5;entryY=0;entryDx=0;entryDy=0;fillColor=#ffcd5a;strokeColor=#ffcd5a;strokeWidth=2;" parent="1" source="l5DUgXWPw0Alo5oeBkL1-6" target="l5DUgXWPw0Alo5oeBkL1-12" edge="1">
          <mxGeometry relative="1" as="geometry">
            <Array as="points">
              <mxPoint x="309" y="2494.64" />
              <mxPoint x="111" y="2494.64" />
            </Array>
          </mxGeometry>
        </mxCell>
        <mxCell id="l5DUgXWPw0Alo5oeBkL1-3" style="rounded=0;orthogonalLoop=1;jettySize=auto;html=1;exitX=0;exitY=0.5;exitDx=0;exitDy=0;entryX=1;entryY=0.5;entryDx=0;entryDy=0;fillColor=#8db9ff;strokeWidth=2;startArrow=classic;startFill=1;" parent="1" source="l5DUgXWPw0Alo5oeBkL1-6" target="l5DUgXWPw0Alo5oeBkL1-14" edge="1">
          <mxGeometry relative="1" as="geometry" />
        </mxCell>
        <mxCell id="l5DUgXWPw0Alo5oeBkL1-4" value="配置存储" style="edgeLabel;html=1;align=center;verticalAlign=middle;resizable=0;points=[];" parent="l5DUgXWPw0Alo5oeBkL1-3" vertex="1" connectable="0">
          <mxGeometry x="-0.7019" y="-2" relative="1" as="geometry">
            <mxPoint x="-33.33" as="offset" />
          </mxGeometry>
        </mxCell>
        <mxCell id="l5DUgXWPw0Alo5oeBkL1-5" style="edgeStyle=orthogonalEdgeStyle;rounded=0;orthogonalLoop=1;jettySize=auto;html=1;entryX=0.25;entryY=0;entryDx=0;entryDy=0;strokeColor=#FFCD5A;strokeWidth=2;exitX=0.5;exitY=1;exitDx=0;exitDy=0;" parent="1" target="l5DUgXWPw0Alo5oeBkL1-34" edge="1" source="l5DUgXWPw0Alo5oeBkL1-6">
          <mxGeometry relative="1" as="geometry">
            <Array as="points">
              <mxPoint x="303" y="2495" />
              <mxPoint x="1038" y="2495" />
            </Array>
            <mxPoint x="309" y="2324.64" as="sourcePoint" />
          </mxGeometry>
        </mxCell>
        <mxCell id="l5DUgXWPw0Alo5oeBkL1-6" value="manage-service&lt;br&gt;&lt;br&gt;&lt;div style=&quot;text-align: left&quot;&gt;&lt;span&gt;配置管理：&lt;/span&gt;&lt;/div&gt;&lt;div style=&quot;text-align: left&quot;&gt;&lt;span&gt;1.实时特征处理配置&lt;/span&gt;&lt;/div&gt;&lt;div style=&quot;text-align: left&quot;&gt;&lt;span&gt;2.特征表管理&lt;/span&gt;&lt;/div&gt;&lt;div style=&quot;text-align: left&quot;&gt;&lt;span&gt;3.特征组管理&lt;/span&gt;&lt;/div&gt;" style="rounded=1;whiteSpace=wrap;html=1;fillColor=#cce5ff;strokeColor=#36393d;" parent="1" vertex="1">
          <mxGeometry x="227.44999999999996" y="2310" width="150" height="110" as="geometry" />
        </mxCell>
        <mxCell id="l5DUgXWPw0Alo5oeBkL1-7" style="edgeStyle=orthogonalEdgeStyle;rounded=0;orthogonalLoop=1;jettySize=auto;html=1;exitX=0.5;exitY=1;exitDx=0;exitDy=0;entryX=0.5;entryY=0;entryDx=0;entryDy=0;fillColor=#ffcd5a;strokeColor=#ffcd5a;strokeWidth=2;dashed=1;" parent="1" source="l5DUgXWPw0Alo5oeBkL1-6" target="l5DUgXWPw0Alo5oeBkL1-21" edge="1">
          <mxGeometry relative="1" as="geometry">
            <mxPoint x="365.75" y="2534.64" as="targetPoint" />
            <Array as="points">
              <mxPoint x="303" y="2495" />
              <mxPoint x="410" y="2495" />
            </Array>
          </mxGeometry>
        </mxCell>
        <mxCell id="l5DUgXWPw0Alo5oeBkL1-8" value="配置同步" style="edgeLabel;html=1;align=center;verticalAlign=middle;resizable=0;points=[];" parent="l5DUgXWPw0Alo5oeBkL1-7" vertex="1" connectable="0">
          <mxGeometry x="-0.52" y="-2" relative="1" as="geometry">
            <mxPoint x="-29.5" y="4.619999999999999" as="offset" />
          </mxGeometry>
        </mxCell>
        <mxCell id="l5DUgXWPw0Alo5oeBkL1-9" style="edgeStyle=orthogonalEdgeStyle;rounded=0;orthogonalLoop=1;jettySize=auto;html=1;exitX=1;exitY=0.5;exitDx=0;exitDy=0;entryX=0;entryY=0.5;entryDx=0;entryDy=0;fillColor=#ff8987;strokeColor=#ff8987;entryPerimeter=0;strokeWidth=2;" parent="1" source="l5DUgXWPw0Alo5oeBkL1-12" target="l5DUgXWPw0Alo5oeBkL1-30" edge="1">
          <mxGeometry relative="1" as="geometry">
            <mxPoint x="126" y="2604.64" as="targetPoint" />
          </mxGeometry>
        </mxCell>
        <mxCell id="l5DUgXWPw0Alo5oeBkL1-10" style="edgeStyle=orthogonalEdgeStyle;rounded=0;orthogonalLoop=1;jettySize=auto;html=1;exitX=1;exitY=0;exitDx=0;exitDy=0;entryX=0.5;entryY=1;entryDx=0;entryDy=0;startArrow=none;startFill=0;strokeWidth=1;curved=1;dashed=1;strokeColor=#330000;" parent="1" source="l5DUgXWPw0Alo5oeBkL1-12" target="l5DUgXWPw0Alo5oeBkL1-36" edge="1">
          <mxGeometry relative="1" as="geometry" />
        </mxCell>
        <mxCell id="l5DUgXWPw0Alo5oeBkL1-11" value="数据上报" style="edgeLabel;html=1;align=center;verticalAlign=middle;resizable=0;points=[];" parent="l5DUgXWPw0Alo5oeBkL1-10" vertex="1" connectable="0">
          <mxGeometry x="0.6817" y="-27" relative="1" as="geometry">
            <mxPoint x="38" y="-23.759999999999998" as="offset" />
          </mxGeometry>
        </mxCell>
        <mxCell id="l5DUgXWPw0Alo5oeBkL1-12" value="data-transform-service&lt;br&gt;（数据预处理）" style="rounded=1;whiteSpace=wrap;html=1;fillColor=#cce5ff;strokeColor=#36393d;" parent="1" vertex="1">
          <mxGeometry x="40" y="2564.64" width="126" height="70" as="geometry" />
        </mxCell>
        <mxCell id="l5DUgXWPw0Alo5oeBkL1-13" style="edgeStyle=orthogonalEdgeStyle;rounded=0;orthogonalLoop=1;jettySize=auto;html=1;exitX=1;exitY=0.5;exitDx=0;exitDy=0;fillColor=#ff8987;strokeColor=#ff8987;entryX=0;entryY=0.5;entryDx=0;entryDy=0;strokeWidth=2;entryPerimeter=0;" parent="1" source="l5DUgXWPw0Alo5oeBkL1-21" target="TpPOIZXhBfLt71gn-7qk-1" edge="1">
          <mxGeometry relative="1" as="geometry">
            <mxPoint x="385.5" y="2924.64" as="sourcePoint" />
          </mxGeometry>
        </mxCell>
        <mxCell id="l5DUgXWPw0Alo5oeBkL1-14" value="MySQL" style="shape=cylinder;whiteSpace=wrap;html=1;boundedLbl=1;backgroundOutline=1;" parent="1" vertex="1">
          <mxGeometry x="89.52999999999997" y="2347.5" width="50" height="35" as="geometry" />
        </mxCell>
        <mxCell id="l5DUgXWPw0Alo5oeBkL1-15" style="edgeStyle=orthogonalEdgeStyle;rounded=0;orthogonalLoop=1;jettySize=auto;html=1;exitX=1;exitY=0.5;exitDx=0;exitDy=0;entryX=0;entryY=0.5;entryDx=0;entryDy=0;strokeWidth=2;strokeColor=#FF8987;" parent="1" source="l5DUgXWPw0Alo5oeBkL1-39" target="l5DUgXWPw0Alo5oeBkL1-34" edge="1">
          <mxGeometry relative="1" as="geometry" />
        </mxCell>
        <mxCell id="l5DUgXWPw0Alo5oeBkL1-16" style="edgeStyle=orthogonalEdgeStyle;rounded=0;orthogonalLoop=1;jettySize=auto;html=1;exitX=1;exitY=0.5;exitDx=0;exitDy=0;entryX=0;entryY=0.5;entryDx=0;entryDy=0;fillColor=#ff8987;strokeColor=#ff8987;exitPerimeter=0;strokeWidth=2;" parent="1" source="l5DUgXWPw0Alo5oeBkL1-30" target="l5DUgXWPw0Alo5oeBkL1-21" edge="1">
          <mxGeometry relative="1" as="geometry">
            <mxPoint x="196" y="2604.64" as="sourcePoint" />
            <mxPoint x="264.75" y="2599.64" as="targetPoint" />
          </mxGeometry>
        </mxCell>
        <mxCell id="l5DUgXWPw0Alo5oeBkL1-17" style="edgeStyle=orthogonalEdgeStyle;rounded=0;orthogonalLoop=1;jettySize=auto;html=1;exitX=0.5;exitY=1;exitDx=0;exitDy=0;entryX=0.5;entryY=0;entryDx=0;entryDy=0;strokeWidth=2;startArrow=classic;startFill=1;strokeColor=#8DB9FF;" parent="1" source="l5DUgXWPw0Alo5oeBkL1-18" target="l5DUgXWPw0Alo5oeBkL1-6" edge="1">
          <mxGeometry relative="1" as="geometry" />
        </mxCell>
        <mxCell id="l5DUgXWPw0Alo5oeBkL1-18" value="web前端" style="rounded=1;whiteSpace=wrap;html=1;fillColor=#ffecf1;strokeColor=#ff8987;" parent="1" vertex="1">
          <mxGeometry x="258.7" y="2250" width="87.5" height="30" as="geometry" />
        </mxCell>
        <mxCell id="l5DUgXWPw0Alo5oeBkL1-20" style="edgeStyle=orthogonalEdgeStyle;curved=1;rounded=0;orthogonalLoop=1;jettySize=auto;html=1;exitX=0.5;exitY=0;exitDx=0;exitDy=0;entryX=0.5;entryY=1;entryDx=0;entryDy=0;startArrow=none;startFill=0;strokeWidth=1;dashed=1;strokeColor=#330000;" parent="1" source="TpPOIZXhBfLt71gn-7qk-2" target="l5DUgXWPw0Alo5oeBkL1-36" edge="1">
          <mxGeometry relative="1" as="geometry" />
        </mxCell>
        <mxCell id="l5DUgXWPw0Alo5oeBkL1-65" style="edgeStyle=orthogonalEdgeStyle;rounded=0;orthogonalLoop=1;jettySize=auto;html=1;exitX=1;exitY=0.25;exitDx=0;exitDy=0;entryX=0;entryY=0.5;entryDx=0;entryDy=0;strokeColor=#FF8987;startArrow=classic;startFill=1;" parent="1" source="l5DUgXWPw0Alo5oeBkL1-21" target="l5DUgXWPw0Alo5oeBkL1-64" edge="1">
          <mxGeometry relative="1" as="geometry" />
        </mxCell>
        <mxCell id="l5DUgXWPw0Alo5oeBkL1-21" value="flink-datastream&lt;br&gt;&lt;div style=&quot;text-align: left&quot;&gt;算子：&lt;/div&gt;&lt;div style=&quot;text-align: left&quot;&gt;1.count&lt;/div&gt;&lt;div style=&quot;text-align: left&quot;&gt;2.sum&lt;/div&gt;&lt;div style=&quot;text-align: left&quot;&gt;3.list&lt;/div&gt;&lt;div style=&quot;text-align: left&quot;&gt;4.set&lt;/div&gt;&lt;div style=&quot;text-align: left&quot;&gt;5.....&lt;/div&gt;&lt;div style=&quot;text-align: left&quot;&gt;（特征计算）&lt;/div&gt;" style="rounded=1;whiteSpace=wrap;html=1;fillColor=#cce5ff;strokeColor=#36393d;" parent="1" vertex="1">
          <mxGeometry x="360" y="2519.64" width="100" height="130.36" as="geometry" />
        </mxCell>
        <mxCell id="l5DUgXWPw0Alo5oeBkL1-22" value="" style="endArrow=classic;html=1;fillColor=#ff8987;strokeColor=#ff8987;strokeWidth=2;" parent="1" edge="1">
          <mxGeometry width="50" height="50" relative="1" as="geometry">
            <mxPoint x="-58" y="2274.64" as="sourcePoint" />
            <mxPoint x="122" y="2274.64" as="targetPoint" />
          </mxGeometry>
        </mxCell>
        <mxCell id="l5DUgXWPw0Alo5oeBkL1-23" value="&lt;font style=&quot;font-size: 10px&quot;&gt;表示数据流向&lt;/font&gt;" style="text;html=1;align=center;verticalAlign=middle;resizable=0;points=[];labelBackgroundColor=#ffffff;childText;" parent="l5DUgXWPw0Alo5oeBkL1-22" vertex="1" connectable="0">
          <mxGeometry x="0.0714" y="-1" relative="1" as="geometry">
            <mxPoint x="-5.47" y="-12.82" as="offset" />
          </mxGeometry>
        </mxCell>
        <mxCell id="l5DUgXWPw0Alo5oeBkL1-24" style="edgeStyle=orthogonalEdgeStyle;rounded=0;orthogonalLoop=1;jettySize=auto;html=1;exitX=1;exitY=0.5;exitDx=0;exitDy=0;exitPerimeter=0;entryX=0;entryY=0.5;entryDx=0;entryDy=0;fillColor=#ff8987;strokeColor=#ff8987;strokeWidth=2;" parent="1" source="l5DUgXWPw0Alo5oeBkL1-29" target="l5DUgXWPw0Alo5oeBkL1-12" edge="1">
          <mxGeometry relative="1" as="geometry">
            <mxPoint x="-41" y="2604.64" as="sourcePoint" />
            <Array as="points">
              <mxPoint x="-50" y="2713" />
              <mxPoint x="-50" y="2600" />
            </Array>
          </mxGeometry>
        </mxCell>
        <mxCell id="l5DUgXWPw0Alo5oeBkL1-27" value="" style="endArrow=classic;html=1;fillColor=#ffcd5a;strokeColor=#ffcd5a;strokeWidth=2;" parent="1" edge="1">
          <mxGeometry width="50" height="50" relative="1" as="geometry">
            <mxPoint x="-58" y="2295.64" as="sourcePoint" />
            <mxPoint x="122" y="2295.64" as="targetPoint" />
          </mxGeometry>
        </mxCell>
        <mxCell id="l5DUgXWPw0Alo5oeBkL1-28" value="表示各子服务配置变更" style="text;html=1;align=center;verticalAlign=middle;resizable=0;points=[];labelBackgroundColor=#ffffff;childText;" parent="l5DUgXWPw0Alo5oeBkL1-27" vertex="1" connectable="0">
          <mxGeometry x="0.0714" y="-1" relative="1" as="geometry">
            <mxPoint x="-5.47" y="-12.82" as="offset" />
          </mxGeometry>
        </mxCell>
        <mxCell id="TpPOIZXhBfLt71gn-7qk-12" style="edgeStyle=orthogonalEdgeStyle;rounded=0;orthogonalLoop=1;jettySize=auto;html=1;exitX=1;exitY=0.5;exitDx=0;exitDy=0;exitPerimeter=0;entryX=0;entryY=0.5;entryDx=0;entryDy=0;strokeWidth=2;strokeColor=#FF8987;" edge="1" parent="1" source="l5DUgXWPw0Alo5oeBkL1-29" target="TpPOIZXhBfLt71gn-7qk-5">
          <mxGeometry relative="1" as="geometry">
            <Array as="points">
              <mxPoint x="-50" y="2713" />
              <mxPoint x="-50" y="2863" />
            </Array>
          </mxGeometry>
        </mxCell>
        <mxCell id="l5DUgXWPw0Alo5oeBkL1-29" value="源数据&lt;br&gt;（埋点&lt;br&gt;/binlog&lt;br&gt;/后端json）" style="strokeWidth=2;html=1;shape=mxgraph.flowchart.direct_data;whiteSpace=wrap;" parent="1" vertex="1">
          <mxGeometry x="-190" y="2673.75" width="96" height="77.5" as="geometry" />
        </mxCell>
        <mxCell id="TpPOIZXhBfLt71gn-7qk-15" style="edgeStyle=orthogonalEdgeStyle;rounded=0;orthogonalLoop=1;jettySize=auto;html=1;exitX=1;exitY=0.5;exitDx=0;exitDy=0;exitPerimeter=0;entryX=0;entryY=0.5;entryDx=0;entryDy=0;startArrow=none;startFill=0;endArrow=classic;endFill=1;strokeColor=#FF8987;strokeWidth=2;" edge="1" parent="1" source="l5DUgXWPw0Alo5oeBkL1-30" target="TpPOIZXhBfLt71gn-7qk-14">
          <mxGeometry relative="1" as="geometry" />
        </mxCell>
        <mxCell id="l5DUgXWPw0Alo5oeBkL1-30" value="用户行为数据topic" style="strokeWidth=2;html=1;shape=mxgraph.flowchart.direct_data;whiteSpace=wrap;" parent="1" vertex="1">
          <mxGeometry x="193.5" y="2579.64" width="110" height="40" as="geometry" />
        </mxCell>
        <mxCell id="l5DUgXWPw0Alo5oeBkL1-32" style="edgeStyle=orthogonalEdgeStyle;rounded=0;orthogonalLoop=1;jettySize=auto;html=1;exitX=1;exitY=0.5;exitDx=0;exitDy=0;entryX=0.5;entryY=1;entryDx=0;entryDy=0;startArrow=none;startFill=0;fillColor=#f8cecc;strokeColor=#FF8987;strokeWidth=2;endArrow=classic;endFill=1;" parent="1" source="l5DUgXWPw0Alo5oeBkL1-34" target="l5DUgXWPw0Alo5oeBkL1-51" edge="1">
          <mxGeometry relative="1" as="geometry">
            <mxPoint x="868.195" y="2490" as="targetPoint" />
            <Array as="points">
              <mxPoint x="1235" y="2705" />
            </Array>
          </mxGeometry>
        </mxCell>
        <mxCell id="l5DUgXWPw0Alo5oeBkL1-33" style="edgeStyle=orthogonalEdgeStyle;curved=1;rounded=0;orthogonalLoop=1;jettySize=auto;html=1;exitX=0;exitY=0;exitDx=0;exitDy=0;entryX=0.5;entryY=1;entryDx=0;entryDy=0;dashed=1;startArrow=none;startFill=0;strokeColor=#330000;strokeWidth=1;" parent="1" source="l5DUgXWPw0Alo5oeBkL1-34" target="l5DUgXWPw0Alo5oeBkL1-36" edge="1">
          <mxGeometry relative="1" as="geometry">
            <Array as="points">
              <mxPoint x="960" y="2670" />
              <mxPoint x="960" y="2430" />
              <mxPoint x="762" y="2430" />
            </Array>
          </mxGeometry>
        </mxCell>
        <mxCell id="l5DUgXWPw0Alo5oeBkL1-34" value="kv-search-service&lt;br&gt;（特征查询）" style="rounded=1;whiteSpace=wrap;html=1;fillColor=#cce5ff;strokeColor=#36393d;" parent="1" vertex="1">
          <mxGeometry x="1014.07" y="2670" width="96.25" height="70" as="geometry" />
        </mxCell>
        <mxCell id="l5DUgXWPw0Alo5oeBkL1-36" value="&lt;font style=&quot;font-size: 16px&quot;&gt;&lt;b&gt;CAT&lt;br&gt;(告警配置)&lt;/b&gt;&lt;/font&gt;" style="rounded=1;whiteSpace=wrap;html=1;fillColor=#ffecf1;strokeColor=#ff8987;" parent="1" vertex="1">
          <mxGeometry x="716" y="2240" width="92.5" height="60" as="geometry" />
        </mxCell>
        <mxCell id="l5DUgXWPw0Alo5oeBkL1-37" value="" style="endArrow=classic;html=1;fillColor=#ffcd5a;strokeWidth=1;strokeColor=#330000;dashed=1;" parent="1" edge="1">
          <mxGeometry width="50" height="50" relative="1" as="geometry">
            <mxPoint x="-58" y="2314.64" as="sourcePoint" />
            <mxPoint x="122" y="2314.64" as="targetPoint" />
          </mxGeometry>
        </mxCell>
        <mxCell id="l5DUgXWPw0Alo5oeBkL1-38" value="表示监控数据上报" style="text;html=1;align=center;verticalAlign=middle;resizable=0;points=[];labelBackgroundColor=#ffffff;childText;" parent="l5DUgXWPw0Alo5oeBkL1-37" vertex="1" connectable="0">
          <mxGeometry x="0.0714" y="-1" relative="1" as="geometry">
            <mxPoint x="-5.47" y="-12.82" as="offset" />
          </mxGeometry>
        </mxCell>
        <mxCell id="l5DUgXWPw0Alo5oeBkL1-39" value="HBase&lt;br style=&quot;font-size: 16px;&quot;&gt;特征存储" style="shape=cylinder;whiteSpace=wrap;html=1;boundedLbl=1;backgroundOutline=1;fontStyle=1;fontSize=16;" parent="1" vertex="1">
          <mxGeometry x="820.9399999999999" y="2666.25" width="100.01" height="77.5" as="geometry" />
        </mxCell>
        <mxCell id="l5DUgXWPw0Alo5oeBkL1-40" value="离线特征处理链路" style="rounded=0;whiteSpace=wrap;html=1;dashed=1;shadow=0;fillColor=#d5e8d4;verticalAlign=top;strokeColor=#82b366;fontStyle=1;fontSize=16;align=right;" parent="1" vertex="1">
          <mxGeometry x="10" y="2770" width="580" height="180" as="geometry" />
        </mxCell>
        <mxCell id="l5DUgXWPw0Alo5oeBkL1-41" style="edgeStyle=orthogonalEdgeStyle;rounded=0;orthogonalLoop=1;jettySize=auto;html=1;exitX=1;exitY=0.5;exitDx=0;exitDy=0;entryX=0.5;entryY=1;entryDx=0;entryDy=0;fillColor=#ff8987;strokeWidth=1;" parent="1" source="l5DUgXWPw0Alo5oeBkL1-42" target="l5DUgXWPw0Alo5oeBkL1-39" edge="1">
          <mxGeometry relative="1" as="geometry">
            <mxPoint x="789.25" y="3000" as="targetPoint" />
          </mxGeometry>
        </mxCell>
        <mxCell id="l5DUgXWPw0Alo5oeBkL1-42" value="odps离线特征同步" style="rounded=1;whiteSpace=wrap;html=1;" parent="1" vertex="1">
          <mxGeometry x="470.00000000000034" y="2832.5" width="110" height="60" as="geometry" />
        </mxCell>
        <mxCell id="TpPOIZXhBfLt71gn-7qk-10" style="edgeStyle=orthogonalEdgeStyle;rounded=0;orthogonalLoop=1;jettySize=auto;html=1;exitX=1;exitY=0.5;exitDx=0;exitDy=0;entryX=0;entryY=0.5;entryDx=0;entryDy=0;strokeWidth=1;" edge="1" parent="1" source="l5DUgXWPw0Alo5oeBkL1-49" target="l5DUgXWPw0Alo5oeBkL1-42">
          <mxGeometry relative="1" as="geometry" />
        </mxCell>
        <mxCell id="l5DUgXWPw0Alo5oeBkL1-49" value="基础特征表" style="rounded=1;whiteSpace=wrap;html=1;" parent="1" vertex="1">
          <mxGeometry x="330.0000000000002" y="2802.5" width="100.63" height="50" as="geometry" />
        </mxCell>
        <mxCell id="TpPOIZXhBfLt71gn-7qk-11" style="edgeStyle=orthogonalEdgeStyle;rounded=0;orthogonalLoop=1;jettySize=auto;html=1;exitX=1;exitY=0.5;exitDx=0;exitDy=0;entryX=0;entryY=0.5;entryDx=0;entryDy=0;strokeWidth=1;" edge="1" parent="1" source="l5DUgXWPw0Alo5oeBkL1-50" target="l5DUgXWPw0Alo5oeBkL1-42">
          <mxGeometry relative="1" as="geometry" />
        </mxCell>
        <mxCell id="l5DUgXWPw0Alo5oeBkL1-50" value="业务特征表" style="rounded=1;whiteSpace=wrap;html=1;" parent="1" vertex="1">
          <mxGeometry x="330.00000000000034" y="2872.5" width="100.63" height="50" as="geometry" />
        </mxCell>
        <mxCell id="l5DUgXWPw0Alo5oeBkL1-51" value="调用方" style="rounded=0;whiteSpace=wrap;html=1;dashed=1;shadow=0;fillColor=#d5e8d4;verticalAlign=bottom;strokeColor=#82b366;fontStyle=1;fontSize=16;" parent="1" vertex="1">
          <mxGeometry x="1090" y="2404.64" width="290" height="100" as="geometry" />
        </mxCell>
        <mxCell id="l5DUgXWPw0Alo5oeBkL1-52" value="推理服务" style="rounded=1;whiteSpace=wrap;html=1;fillColor=#cce5ff;strokeColor=#36393d;" parent="1" vertex="1">
          <mxGeometry x="1100" y="2424.64" width="70.38" height="50" as="geometry" />
        </mxCell>
        <mxCell id="l5DUgXWPw0Alo5oeBkL1-54" value="业务推荐引擎" style="rounded=1;whiteSpace=wrap;html=1;fillColor=#cce5ff;strokeColor=#36393d;" parent="1" vertex="1">
          <mxGeometry x="1183.75" y="2424.64" width="98.13" height="50" as="geometry" />
        </mxCell>
        <mxCell id="l5DUgXWPw0Alo5oeBkL1-55" value="其他服务" style="rounded=1;whiteSpace=wrap;html=1;fillColor=#cce5ff;strokeColor=#36393d;" parent="1" vertex="1">
          <mxGeometry x="1296.25" y="2424.64" width="73.75" height="50" as="geometry" />
        </mxCell>
        <mxCell id="l5DUgXWPw0Alo5oeBkL1-64" value="Tair&lt;br&gt;中间特征" style="shape=cylinder;whiteSpace=wrap;html=1;boundedLbl=1;backgroundOutline=1;verticalAlign=bottom;" parent="1" vertex="1">
          <mxGeometry x="517.5" y="2510" width="62.5" height="40" as="geometry" />
        </mxCell>
        <mxCell id="uiweEr2TGew7m58Tf3AB-1" value="" style="rounded=0;whiteSpace=wrap;html=1;dashed=1;shadow=0;fillColor=none;" parent="1" vertex="1">
          <mxGeometry x="1780" y="1070" width="740" height="370" as="geometry" />
        </mxCell>
        <mxCell id="uiweEr2TGew7m58Tf3AB-2" style="edgeStyle=orthogonalEdgeStyle;rounded=0;orthogonalLoop=1;jettySize=auto;html=1;exitX=0.5;exitY=1;exitDx=0;exitDy=0;entryX=0.5;entryY=0;entryDx=0;entryDy=0;fillColor=#ffcd5a;strokeColor=#ffcd5a;strokeWidth=2;" parent="1" source="uiweEr2TGew7m58Tf3AB-6" target="uiweEr2TGew7m58Tf3AB-12" edge="1">
          <mxGeometry relative="1" as="geometry">
            <Array as="points">
              <mxPoint x="2183" y="1160" />
              <mxPoint x="1985" y="1160" />
            </Array>
          </mxGeometry>
        </mxCell>
        <mxCell id="uiweEr2TGew7m58Tf3AB-3" style="rounded=0;orthogonalLoop=1;jettySize=auto;html=1;exitX=0;exitY=0.5;exitDx=0;exitDy=0;entryX=1;entryY=0.5;entryDx=0;entryDy=0;fillColor=#8db9ff;strokeColor=#8db9ff;strokeWidth=2;startArrow=classic;startFill=1;" parent="1" source="uiweEr2TGew7m58Tf3AB-6" target="uiweEr2TGew7m58Tf3AB-14" edge="1">
          <mxGeometry relative="1" as="geometry" />
        </mxCell>
        <mxCell id="uiweEr2TGew7m58Tf3AB-4" value="配置修改" style="edgeLabel;html=1;align=center;verticalAlign=middle;resizable=0;points=[];" parent="uiweEr2TGew7m58Tf3AB-3" vertex="1" connectable="0">
          <mxGeometry x="-0.7019" y="-2" relative="1" as="geometry">
            <mxPoint x="-33.33" as="offset" />
          </mxGeometry>
        </mxCell>
        <mxCell id="uiweEr2TGew7m58Tf3AB-5" style="edgeStyle=orthogonalEdgeStyle;rounded=0;orthogonalLoop=1;jettySize=auto;html=1;exitX=0.5;exitY=1;exitDx=0;exitDy=0;entryX=0.25;entryY=0;entryDx=0;entryDy=0;strokeColor=#FFCD5A;strokeWidth=2;" parent="1" source="uiweEr2TGew7m58Tf3AB-6" target="uiweEr2TGew7m58Tf3AB-34" edge="1">
          <mxGeometry relative="1" as="geometry">
            <Array as="points">
              <mxPoint x="2183" y="1160" />
              <mxPoint x="2434" y="1160" />
            </Array>
          </mxGeometry>
        </mxCell>
        <mxCell id="uiweEr2TGew7m58Tf3AB-6" value="profile-manage-service&lt;br&gt;（配置管理）" style="rounded=1;whiteSpace=wrap;html=1;fillColor=#cce5ff;strokeColor=#36393d;" parent="1" vertex="1">
          <mxGeometry x="2107.5" y="1090" width="150" height="50" as="geometry" />
        </mxCell>
        <mxCell id="uiweEr2TGew7m58Tf3AB-7" style="edgeStyle=orthogonalEdgeStyle;rounded=0;orthogonalLoop=1;jettySize=auto;html=1;exitX=0.5;exitY=1;exitDx=0;exitDy=0;entryX=0.5;entryY=0;entryDx=0;entryDy=0;fillColor=#ffcd5a;strokeColor=#ffcd5a;strokeWidth=2;dashed=1;" parent="1" source="uiweEr2TGew7m58Tf3AB-6" target="uiweEr2TGew7m58Tf3AB-21" edge="1">
          <mxGeometry relative="1" as="geometry">
            <mxPoint x="2239.75" y="1200" as="targetPoint" />
            <Array as="points">
              <mxPoint x="2183" y="1160" />
              <mxPoint x="2260" y="1160" />
            </Array>
          </mxGeometry>
        </mxCell>
        <mxCell id="uiweEr2TGew7m58Tf3AB-8" value="配置变更&lt;br&gt;broadcast" style="edgeLabel;html=1;align=center;verticalAlign=middle;resizable=0;points=[];" parent="uiweEr2TGew7m58Tf3AB-7" vertex="1" connectable="0">
          <mxGeometry x="-0.52" y="-2" relative="1" as="geometry">
            <mxPoint x="-49.58" as="offset" />
          </mxGeometry>
        </mxCell>
        <mxCell id="uiweEr2TGew7m58Tf3AB-9" style="edgeStyle=orthogonalEdgeStyle;rounded=0;orthogonalLoop=1;jettySize=auto;html=1;exitX=1;exitY=0.5;exitDx=0;exitDy=0;entryX=0;entryY=0.5;entryDx=0;entryDy=0;fillColor=#ff8987;strokeColor=#ff8987;entryPerimeter=0;strokeWidth=2;" parent="1" source="uiweEr2TGew7m58Tf3AB-12" target="uiweEr2TGew7m58Tf3AB-30" edge="1">
          <mxGeometry relative="1" as="geometry">
            <mxPoint x="2000" y="1270" as="targetPoint" />
          </mxGeometry>
        </mxCell>
        <mxCell id="uiweEr2TGew7m58Tf3AB-10" style="edgeStyle=orthogonalEdgeStyle;rounded=0;orthogonalLoop=1;jettySize=auto;html=1;exitX=0.5;exitY=1;exitDx=0;exitDy=0;entryX=0.5;entryY=0;entryDx=0;entryDy=0;startArrow=none;startFill=0;strokeWidth=1;curved=1;dashed=1;strokeColor=#330000;" parent="1" source="uiweEr2TGew7m58Tf3AB-12" target="uiweEr2TGew7m58Tf3AB-36" edge="1">
          <mxGeometry relative="1" as="geometry" />
        </mxCell>
        <mxCell id="uiweEr2TGew7m58Tf3AB-11" value="数据上报" style="edgeLabel;html=1;align=center;verticalAlign=middle;resizable=0;points=[];" parent="uiweEr2TGew7m58Tf3AB-10" vertex="1" connectable="0">
          <mxGeometry x="0.6817" y="-27" relative="1" as="geometry">
            <mxPoint x="27" y="33.4" as="offset" />
          </mxGeometry>
        </mxCell>
        <mxCell id="uiweEr2TGew7m58Tf3AB-12" value="ypp-gd-service&lt;br&gt;（数据预处理）" style="rounded=1;whiteSpace=wrap;html=1;fillColor=#cce5ff;strokeColor=#36393d;" parent="1" vertex="1">
          <mxGeometry x="1930" y="1230" width="110" height="70" as="geometry" />
        </mxCell>
        <mxCell id="uiweEr2TGew7m58Tf3AB-13" style="edgeStyle=orthogonalEdgeStyle;rounded=0;orthogonalLoop=1;jettySize=auto;html=1;exitX=1;exitY=0.5;exitDx=0;exitDy=0;fillColor=#ff8987;strokeColor=#ff8987;entryX=0;entryY=0.5;entryDx=0;entryDy=0;strokeWidth=2;" parent="1" source="uiweEr2TGew7m58Tf3AB-21" target="uiweEr2TGew7m58Tf3AB-39" edge="1">
          <mxGeometry relative="1" as="geometry">
            <mxPoint x="2259.5" y="1590" as="sourcePoint" />
          </mxGeometry>
        </mxCell>
        <mxCell id="uiweEr2TGew7m58Tf3AB-14" value="MySQL" style="shape=cylinder;whiteSpace=wrap;html=1;boundedLbl=1;backgroundOutline=1;" parent="1" vertex="1">
          <mxGeometry x="1960" y="1097.5" width="50" height="35" as="geometry" />
        </mxCell>
        <mxCell id="uiweEr2TGew7m58Tf3AB-15" style="edgeStyle=orthogonalEdgeStyle;rounded=0;orthogonalLoop=1;jettySize=auto;html=1;exitX=1;exitY=0.5;exitDx=0;exitDy=0;entryX=0.5;entryY=1;entryDx=0;entryDy=0;strokeWidth=2;strokeColor=#FF8987;" parent="1" source="uiweEr2TGew7m58Tf3AB-39" target="uiweEr2TGew7m58Tf3AB-34" edge="1">
          <mxGeometry relative="1" as="geometry" />
        </mxCell>
        <mxCell id="uiweEr2TGew7m58Tf3AB-16" style="edgeStyle=orthogonalEdgeStyle;rounded=0;orthogonalLoop=1;jettySize=auto;html=1;exitX=1;exitY=0.5;exitDx=0;exitDy=0;entryX=0;entryY=0.5;entryDx=0;entryDy=0;fillColor=#ff8987;strokeColor=#ff8987;exitPerimeter=0;strokeWidth=2;" parent="1" source="uiweEr2TGew7m58Tf3AB-30" target="uiweEr2TGew7m58Tf3AB-21" edge="1">
          <mxGeometry relative="1" as="geometry">
            <mxPoint x="2070" y="1270" as="sourcePoint" />
            <mxPoint x="2138.75" y="1265" as="targetPoint" />
          </mxGeometry>
        </mxCell>
        <mxCell id="uiweEr2TGew7m58Tf3AB-17" style="edgeStyle=orthogonalEdgeStyle;rounded=0;orthogonalLoop=1;jettySize=auto;html=1;exitX=0.5;exitY=1;exitDx=0;exitDy=0;entryX=0.5;entryY=0;entryDx=0;entryDy=0;strokeWidth=2;startArrow=classic;startFill=1;strokeColor=#8DB9FF;" parent="1" source="uiweEr2TGew7m58Tf3AB-18" target="uiweEr2TGew7m58Tf3AB-6" edge="1">
          <mxGeometry relative="1" as="geometry" />
        </mxCell>
        <mxCell id="uiweEr2TGew7m58Tf3AB-18" value="web前端" style="rounded=1;whiteSpace=wrap;html=1;fillColor=#ffecf1;strokeColor=#ff8987;" parent="1" vertex="1">
          <mxGeometry x="2138.75" y="1010" width="87.5" height="30" as="geometry" />
        </mxCell>
        <mxCell id="uiweEr2TGew7m58Tf3AB-19" style="edgeStyle=orthogonalEdgeStyle;rounded=0;orthogonalLoop=1;jettySize=auto;html=1;exitX=1;exitY=0.5;exitDx=0;exitDy=0;entryX=0;entryY=0.5;entryDx=0;entryDy=0;fillColor=#ff8987;strokeColor=#ff8987;entryPerimeter=0;strokeWidth=2;" parent="1" source="uiweEr2TGew7m58Tf3AB-21" target="uiweEr2TGew7m58Tf3AB-31" edge="1">
          <mxGeometry relative="1" as="geometry">
            <mxPoint x="2274.5" y="1360" as="targetPoint" />
          </mxGeometry>
        </mxCell>
        <mxCell id="uiweEr2TGew7m58Tf3AB-20" style="edgeStyle=orthogonalEdgeStyle;curved=1;rounded=0;orthogonalLoop=1;jettySize=auto;html=1;exitX=0.5;exitY=1;exitDx=0;exitDy=0;entryX=0.5;entryY=0;entryDx=0;entryDy=0;startArrow=none;startFill=0;strokeWidth=1;dashed=1;strokeColor=#330000;" parent="1" source="uiweEr2TGew7m58Tf3AB-21" target="uiweEr2TGew7m58Tf3AB-36" edge="1">
          <mxGeometry relative="1" as="geometry" />
        </mxCell>
        <mxCell id="uiweEr2TGew7m58Tf3AB-21" value="flink&lt;br&gt;&lt;div style=&quot;text-align: left&quot;&gt;&lt;br&gt;&lt;/div&gt;&lt;div style=&quot;text-align: left&quot;&gt;算子：&lt;/div&gt;&lt;div style=&quot;text-align: left&quot;&gt;1.count&lt;/div&gt;&lt;div style=&quot;text-align: left&quot;&gt;2.sum&lt;/div&gt;&lt;div style=&quot;text-align: left&quot;&gt;3.list&lt;/div&gt;&lt;div style=&quot;text-align: left&quot;&gt;4.set&lt;/div&gt;&lt;div style=&quot;text-align: left&quot;&gt;5.....&lt;/div&gt;&lt;div style=&quot;text-align: left&quot;&gt;&lt;br&gt;&lt;/div&gt;&lt;div style=&quot;text-align: left&quot;&gt;（特征计算）&lt;/div&gt;" style="rounded=1;whiteSpace=wrap;html=1;fillColor=#cce5ff;strokeColor=#36393d;" parent="1" vertex="1">
          <mxGeometry x="2210" y="1190" width="100" height="150" as="geometry" />
        </mxCell>
        <mxCell id="uiweEr2TGew7m58Tf3AB-22" value="" style="endArrow=classic;html=1;fillColor=#ff8987;strokeColor=#ff8987;strokeWidth=2;" parent="1" edge="1">
          <mxGeometry width="50" height="50" relative="1" as="geometry">
            <mxPoint x="1780" y="1010" as="sourcePoint" />
            <mxPoint x="1960" y="1010" as="targetPoint" />
          </mxGeometry>
        </mxCell>
        <mxCell id="uiweEr2TGew7m58Tf3AB-23" value="&lt;font style=&quot;font-size: 10px&quot;&gt;表示数据流向&lt;/font&gt;" style="text;html=1;align=center;verticalAlign=middle;resizable=0;points=[];labelBackgroundColor=#ffffff;childText;" parent="uiweEr2TGew7m58Tf3AB-22" vertex="1" connectable="0">
          <mxGeometry x="0.0714" y="-1" relative="1" as="geometry">
            <mxPoint x="-5" y="-1" as="offset" />
          </mxGeometry>
        </mxCell>
        <mxCell id="uiweEr2TGew7m58Tf3AB-24" style="edgeStyle=orthogonalEdgeStyle;rounded=0;orthogonalLoop=1;jettySize=auto;html=1;exitX=1;exitY=0.5;exitDx=0;exitDy=0;exitPerimeter=0;entryX=0;entryY=0.5;entryDx=0;entryDy=0;fillColor=#ff8987;strokeColor=#ff8987;strokeWidth=2;" parent="1" source="uiweEr2TGew7m58Tf3AB-29" target="uiweEr2TGew7m58Tf3AB-12" edge="1">
          <mxGeometry relative="1" as="geometry">
            <mxPoint x="1833" y="1270" as="sourcePoint" />
          </mxGeometry>
        </mxCell>
        <mxCell id="uiweEr2TGew7m58Tf3AB-25" value="" style="endArrow=classic;html=1;fillColor=#8db9ff;strokeColor=#8db9ff;strokeWidth=2;" parent="1" edge="1">
          <mxGeometry width="50" height="50" relative="1" as="geometry">
            <mxPoint x="1780" y="1025" as="sourcePoint" />
            <mxPoint x="1960" y="1025" as="targetPoint" />
          </mxGeometry>
        </mxCell>
        <mxCell id="uiweEr2TGew7m58Tf3AB-26" value="表示配置变更持久化" style="text;html=1;align=center;verticalAlign=middle;resizable=0;points=[];labelBackgroundColor=#ffffff;childText;" parent="uiweEr2TGew7m58Tf3AB-25" vertex="1" connectable="0">
          <mxGeometry x="0.0714" y="-1" relative="1" as="geometry">
            <mxPoint x="-5" y="-1" as="offset" />
          </mxGeometry>
        </mxCell>
        <mxCell id="uiweEr2TGew7m58Tf3AB-27" value="" style="endArrow=classic;html=1;fillColor=#ffcd5a;strokeColor=#ffcd5a;strokeWidth=2;" parent="1" edge="1">
          <mxGeometry width="50" height="50" relative="1" as="geometry">
            <mxPoint x="1780" y="1041" as="sourcePoint" />
            <mxPoint x="1960" y="1041" as="targetPoint" />
          </mxGeometry>
        </mxCell>
        <mxCell id="uiweEr2TGew7m58Tf3AB-28" value="表示各子服务配置变更" style="text;html=1;align=center;verticalAlign=middle;resizable=0;points=[];labelBackgroundColor=#ffffff;childText;" parent="uiweEr2TGew7m58Tf3AB-27" vertex="1" connectable="0">
          <mxGeometry x="0.0714" y="-1" relative="1" as="geometry">
            <mxPoint x="-5" y="-1" as="offset" />
          </mxGeometry>
        </mxCell>
        <mxCell id="uiweEr2TGew7m58Tf3AB-29" value="源数据&lt;br&gt;（埋点&lt;br&gt;/maserati&lt;br&gt;/后端json）" style="strokeWidth=2;html=1;shape=mxgraph.flowchart.direct_data;whiteSpace=wrap;" parent="1" vertex="1">
          <mxGeometry x="1800" y="1226.25" width="96" height="77.5" as="geometry" />
        </mxCell>
        <mxCell id="uiweEr2TGew7m58Tf3AB-30" value="用户行为数据topic" style="strokeWidth=2;html=1;shape=mxgraph.flowchart.direct_data;whiteSpace=wrap;" parent="1" vertex="1">
          <mxGeometry x="2067.5" y="1245" width="110" height="40" as="geometry" />
        </mxCell>
        <mxCell id="uiweEr2TGew7m58Tf3AB-31" value="特征数据topic" style="strokeWidth=2;html=1;shape=mxgraph.flowchart.direct_data;whiteSpace=wrap;" parent="1" vertex="1">
          <mxGeometry x="2357.5" y="1400" width="82.5" height="30" as="geometry" />
        </mxCell>
        <mxCell id="uiweEr2TGew7m58Tf3AB-32" style="edgeStyle=orthogonalEdgeStyle;rounded=0;orthogonalLoop=1;jettySize=auto;html=1;exitX=0.5;exitY=0;exitDx=0;exitDy=0;entryX=0.5;entryY=1;entryDx=0;entryDy=0;startArrow=classic;startFill=1;fillColor=#f8cecc;strokeColor=#FF8987;strokeWidth=2;" parent="1" source="uiweEr2TGew7m58Tf3AB-34" target="uiweEr2TGew7m58Tf3AB-35" edge="1">
          <mxGeometry relative="1" as="geometry" />
        </mxCell>
        <mxCell id="uiweEr2TGew7m58Tf3AB-33" style="edgeStyle=orthogonalEdgeStyle;curved=1;rounded=0;orthogonalLoop=1;jettySize=auto;html=1;exitX=0.25;exitY=1;exitDx=0;exitDy=0;entryX=0.5;entryY=0;entryDx=0;entryDy=0;dashed=1;startArrow=none;startFill=0;strokeColor=#330000;strokeWidth=1;" parent="1" source="uiweEr2TGew7m58Tf3AB-34" target="uiweEr2TGew7m58Tf3AB-36" edge="1">
          <mxGeometry relative="1" as="geometry" />
        </mxCell>
        <mxCell id="uiweEr2TGew7m58Tf3AB-34" value="profile-service&lt;br&gt;（特征查询）" style="rounded=1;whiteSpace=wrap;html=1;fillColor=#cce5ff;strokeColor=#36393d;" parent="1" vertex="1">
          <mxGeometry x="2410" y="1230" width="96.25" height="70" as="geometry" />
        </mxCell>
        <mxCell id="uiweEr2TGew7m58Tf3AB-35" value="query&lt;br&gt;(get features)" style="rounded=1;whiteSpace=wrap;html=1;fillColor=#ffecf1;strokeColor=#ff8987;" parent="1" vertex="1">
          <mxGeometry x="2407.75" y="1000" width="100.75" height="50" as="geometry" />
        </mxCell>
        <mxCell id="uiweEr2TGew7m58Tf3AB-36" value="CAT&lt;br&gt;(告警配置)" style="rounded=1;whiteSpace=wrap;html=1;fillColor=#ffecf1;strokeColor=#ff8987;" parent="1" vertex="1">
          <mxGeometry x="2152.75" y="1460" width="94" height="50" as="geometry" />
        </mxCell>
        <mxCell id="uiweEr2TGew7m58Tf3AB-37" value="" style="endArrow=classic;html=1;fillColor=#ffcd5a;strokeWidth=1;strokeColor=#330000;dashed=1;" parent="1" edge="1">
          <mxGeometry width="50" height="50" relative="1" as="geometry">
            <mxPoint x="1780" y="1057" as="sourcePoint" />
            <mxPoint x="1960" y="1057" as="targetPoint" />
          </mxGeometry>
        </mxCell>
        <mxCell id="uiweEr2TGew7m58Tf3AB-38" value="数据上报" style="text;html=1;align=center;verticalAlign=middle;resizable=0;points=[];labelBackgroundColor=#ffffff;childText;" parent="uiweEr2TGew7m58Tf3AB-37" vertex="1" connectable="0">
          <mxGeometry x="0.0714" y="-1" relative="1" as="geometry">
            <mxPoint x="-5" y="-1" as="offset" />
          </mxGeometry>
        </mxCell>
        <mxCell id="uiweEr2TGew7m58Tf3AB-39" value="HBase" style="shape=cylinder;whiteSpace=wrap;html=1;boundedLbl=1;backgroundOutline=1;" parent="1" vertex="1">
          <mxGeometry x="2357.5" y="1340" width="72.5" height="45" as="geometry" />
        </mxCell>
        <mxCell id="uiweEr2TGew7m58Tf3AB-40" value="配置管理" style="rounded=0;whiteSpace=wrap;html=1;dashed=1;shadow=0;fillColor=#d5e8d4;verticalAlign=bottom;strokeColor=#82b366;fontStyle=1;fontSize=16;align=left;" parent="1" vertex="1">
          <mxGeometry x="2173.5299999999997" y="1716" width="210" height="211.82" as="geometry" />
        </mxCell>
        <mxCell id="uiweEr2TGew7m58Tf3AB-41" value="在线服务" style="rounded=0;whiteSpace=wrap;html=1;dashed=1;shadow=0;fillColor=#d5e8d4;verticalAlign=bottom;strokeColor=#82b366;fontStyle=1;fontSize=16;align=right;" parent="1" vertex="1">
          <mxGeometry x="2667.13" y="2002.82" width="156.87" height="135" as="geometry" />
        </mxCell>
        <mxCell id="uiweEr2TGew7m58Tf3AB-42" value="实时特征处理链路" style="rounded=0;whiteSpace=wrap;html=1;dashed=1;shadow=0;fillColor=#d5e8d4;verticalAlign=bottom;strokeColor=#82b366;fontStyle=1;fontSize=16;align=left;" parent="1" vertex="1">
          <mxGeometry x="1994" y="1967.82" width="430" height="290" as="geometry" />
        </mxCell>
        <mxCell id="uiweEr2TGew7m58Tf3AB-43" style="edgeStyle=orthogonalEdgeStyle;rounded=0;orthogonalLoop=1;jettySize=auto;html=1;exitX=0.5;exitY=1;exitDx=0;exitDy=0;entryX=0.5;entryY=0;entryDx=0;entryDy=0;fillColor=#ffcd5a;strokeColor=#ffcd5a;strokeWidth=2;" parent="1" source="uiweEr2TGew7m58Tf3AB-47" target="uiweEr2TGew7m58Tf3AB-53" edge="1">
          <mxGeometry relative="1" as="geometry">
            <Array as="points">
              <mxPoint x="2273" y="1957.82" />
              <mxPoint x="2075" y="1957.82" />
            </Array>
          </mxGeometry>
        </mxCell>
        <mxCell id="uiweEr2TGew7m58Tf3AB-44" style="rounded=0;orthogonalLoop=1;jettySize=auto;html=1;exitX=0;exitY=0.5;exitDx=0;exitDy=0;entryX=1;entryY=0.5;entryDx=0;entryDy=0;fillColor=#8db9ff;strokeWidth=2;startArrow=classic;startFill=1;" parent="1" source="uiweEr2TGew7m58Tf3AB-47" target="uiweEr2TGew7m58Tf3AB-55" edge="1">
          <mxGeometry relative="1" as="geometry" />
        </mxCell>
        <mxCell id="uiweEr2TGew7m58Tf3AB-45" value="配置存储" style="edgeLabel;html=1;align=center;verticalAlign=middle;resizable=0;points=[];" parent="uiweEr2TGew7m58Tf3AB-44" vertex="1" connectable="0">
          <mxGeometry x="-0.7019" y="-2" relative="1" as="geometry">
            <mxPoint x="-33.33" as="offset" />
          </mxGeometry>
        </mxCell>
        <mxCell id="uiweEr2TGew7m58Tf3AB-46" style="edgeStyle=orthogonalEdgeStyle;rounded=0;orthogonalLoop=1;jettySize=auto;html=1;entryX=0.25;entryY=0;entryDx=0;entryDy=0;strokeColor=#FFCD5A;strokeWidth=2;" parent="1" target="uiweEr2TGew7m58Tf3AB-72" edge="1">
          <mxGeometry relative="1" as="geometry">
            <Array as="points">
              <mxPoint x="2273" y="1957.82" />
              <mxPoint x="2718" y="1957.82" />
            </Array>
            <mxPoint x="2273" y="1787.82" as="sourcePoint" />
          </mxGeometry>
        </mxCell>
        <mxCell id="uiweEr2TGew7m58Tf3AB-47" value="profile-manage-service&lt;br&gt;&lt;br&gt;&lt;div style=&quot;text-align: left&quot;&gt;&lt;span&gt;配置管理：&lt;/span&gt;&lt;/div&gt;&lt;div style=&quot;text-align: left&quot;&gt;&lt;span&gt;1.实时特征处理配置&lt;/span&gt;&lt;/div&gt;&lt;div style=&quot;text-align: left&quot;&gt;&lt;span&gt;2.特征表管理&lt;/span&gt;&lt;/div&gt;&lt;div style=&quot;text-align: left&quot;&gt;&lt;span&gt;3.特征组管理&lt;/span&gt;&lt;/div&gt;" style="rounded=1;whiteSpace=wrap;html=1;fillColor=#cce5ff;strokeColor=#36393d;" parent="1" vertex="1">
          <mxGeometry x="2201.0299999999997" y="1786" width="150" height="110" as="geometry" />
        </mxCell>
        <mxCell id="uiweEr2TGew7m58Tf3AB-48" style="edgeStyle=orthogonalEdgeStyle;rounded=0;orthogonalLoop=1;jettySize=auto;html=1;exitX=0.5;exitY=1;exitDx=0;exitDy=0;entryX=0.5;entryY=0;entryDx=0;entryDy=0;fillColor=#ffcd5a;strokeColor=#ffcd5a;strokeWidth=2;dashed=1;" parent="1" source="uiweEr2TGew7m58Tf3AB-47" target="uiweEr2TGew7m58Tf3AB-62" edge="1">
          <mxGeometry relative="1" as="geometry">
            <mxPoint x="2329.75" y="1997.82" as="targetPoint" />
            <Array as="points">
              <mxPoint x="2273" y="1957.82" />
              <mxPoint x="2350" y="1957.82" />
            </Array>
          </mxGeometry>
        </mxCell>
        <mxCell id="uiweEr2TGew7m58Tf3AB-49" value="配置同步" style="edgeLabel;html=1;align=center;verticalAlign=middle;resizable=0;points=[];" parent="uiweEr2TGew7m58Tf3AB-48" vertex="1" connectable="0">
          <mxGeometry x="-0.52" y="-2" relative="1" as="geometry">
            <mxPoint x="-29.5" y="4.619999999999999" as="offset" />
          </mxGeometry>
        </mxCell>
        <mxCell id="uiweEr2TGew7m58Tf3AB-50" style="edgeStyle=orthogonalEdgeStyle;rounded=0;orthogonalLoop=1;jettySize=auto;html=1;exitX=1;exitY=0.5;exitDx=0;exitDy=0;entryX=0;entryY=0.5;entryDx=0;entryDy=0;fillColor=#ff8987;strokeColor=#ff8987;entryPerimeter=0;strokeWidth=2;" parent="1" source="uiweEr2TGew7m58Tf3AB-53" target="uiweEr2TGew7m58Tf3AB-69" edge="1">
          <mxGeometry relative="1" as="geometry">
            <mxPoint x="2090" y="2067.82" as="targetPoint" />
          </mxGeometry>
        </mxCell>
        <mxCell id="uiweEr2TGew7m58Tf3AB-51" style="edgeStyle=orthogonalEdgeStyle;rounded=0;orthogonalLoop=1;jettySize=auto;html=1;exitX=0.5;exitY=1;exitDx=0;exitDy=0;entryX=0.5;entryY=0;entryDx=0;entryDy=0;startArrow=none;startFill=0;strokeWidth=1;curved=1;dashed=1;strokeColor=#330000;" parent="1" source="uiweEr2TGew7m58Tf3AB-53" target="uiweEr2TGew7m58Tf3AB-73" edge="1">
          <mxGeometry relative="1" as="geometry" />
        </mxCell>
        <mxCell id="uiweEr2TGew7m58Tf3AB-52" value="数据上报" style="edgeLabel;html=1;align=center;verticalAlign=middle;resizable=0;points=[];" parent="uiweEr2TGew7m58Tf3AB-51" vertex="1" connectable="0">
          <mxGeometry x="0.6817" y="-27" relative="1" as="geometry">
            <mxPoint x="38" y="-23.759999999999998" as="offset" />
          </mxGeometry>
        </mxCell>
        <mxCell id="uiweEr2TGew7m58Tf3AB-53" value="ypp-gd-service&lt;br&gt;（数据预处理）" style="rounded=1;whiteSpace=wrap;html=1;fillColor=#cce5ff;strokeColor=#36393d;" parent="1" vertex="1">
          <mxGeometry x="2020" y="2027.82" width="110" height="70" as="geometry" />
        </mxCell>
        <mxCell id="uiweEr2TGew7m58Tf3AB-54" style="edgeStyle=orthogonalEdgeStyle;rounded=0;orthogonalLoop=1;jettySize=auto;html=1;exitX=1;exitY=0.5;exitDx=0;exitDy=0;fillColor=#ff8987;strokeColor=#ff8987;entryX=0;entryY=0.5;entryDx=0;entryDy=0;strokeWidth=2;" parent="1" source="uiweEr2TGew7m58Tf3AB-62" target="uiweEr2TGew7m58Tf3AB-76" edge="1">
          <mxGeometry relative="1" as="geometry">
            <mxPoint x="2349.5" y="2387.82" as="sourcePoint" />
          </mxGeometry>
        </mxCell>
        <mxCell id="uiweEr2TGew7m58Tf3AB-55" value="MySQL" style="shape=cylinder;whiteSpace=wrap;html=1;boundedLbl=1;backgroundOutline=1;" parent="1" vertex="1">
          <mxGeometry x="2053.5299999999997" y="1823.5" width="50" height="35" as="geometry" />
        </mxCell>
        <mxCell id="uiweEr2TGew7m58Tf3AB-56" style="edgeStyle=orthogonalEdgeStyle;rounded=0;orthogonalLoop=1;jettySize=auto;html=1;exitX=1;exitY=0.5;exitDx=0;exitDy=0;entryX=0;entryY=0.5;entryDx=0;entryDy=0;strokeWidth=2;strokeColor=#FF8987;" parent="1" source="uiweEr2TGew7m58Tf3AB-76" target="uiweEr2TGew7m58Tf3AB-72" edge="1">
          <mxGeometry relative="1" as="geometry" />
        </mxCell>
        <mxCell id="uiweEr2TGew7m58Tf3AB-57" style="edgeStyle=orthogonalEdgeStyle;rounded=0;orthogonalLoop=1;jettySize=auto;html=1;exitX=1;exitY=0.5;exitDx=0;exitDy=0;entryX=0;entryY=0.5;entryDx=0;entryDy=0;fillColor=#ff8987;strokeColor=#ff8987;exitPerimeter=0;strokeWidth=2;" parent="1" source="uiweEr2TGew7m58Tf3AB-69" target="uiweEr2TGew7m58Tf3AB-62" edge="1">
          <mxGeometry relative="1" as="geometry">
            <mxPoint x="2160" y="2067.82" as="sourcePoint" />
            <mxPoint x="2228.75" y="2062.82" as="targetPoint" />
          </mxGeometry>
        </mxCell>
        <mxCell id="uiweEr2TGew7m58Tf3AB-58" style="edgeStyle=orthogonalEdgeStyle;rounded=0;orthogonalLoop=1;jettySize=auto;html=1;exitX=0.5;exitY=1;exitDx=0;exitDy=0;entryX=0.5;entryY=0;entryDx=0;entryDy=0;strokeWidth=2;startArrow=classic;startFill=1;strokeColor=#8DB9FF;" parent="1" source="uiweEr2TGew7m58Tf3AB-59" target="uiweEr2TGew7m58Tf3AB-47" edge="1">
          <mxGeometry relative="1" as="geometry" />
        </mxCell>
        <mxCell id="uiweEr2TGew7m58Tf3AB-59" value="web前端" style="rounded=1;whiteSpace=wrap;html=1;fillColor=#ffecf1;strokeColor=#ff8987;" parent="1" vertex="1">
          <mxGeometry x="2232.2799999999997" y="1726" width="87.5" height="30" as="geometry" />
        </mxCell>
        <mxCell id="uiweEr2TGew7m58Tf3AB-60" style="edgeStyle=orthogonalEdgeStyle;curved=1;rounded=0;orthogonalLoop=1;jettySize=auto;html=1;exitX=0.5;exitY=1;exitDx=0;exitDy=0;entryX=0.5;entryY=0;entryDx=0;entryDy=0;startArrow=none;startFill=0;strokeWidth=1;dashed=1;strokeColor=#330000;" parent="1" source="uiweEr2TGew7m58Tf3AB-62" target="uiweEr2TGew7m58Tf3AB-73" edge="1">
          <mxGeometry relative="1" as="geometry" />
        </mxCell>
        <mxCell id="uiweEr2TGew7m58Tf3AB-61" style="edgeStyle=orthogonalEdgeStyle;rounded=0;orthogonalLoop=1;jettySize=auto;html=1;exitX=0.5;exitY=1;exitDx=0;exitDy=0;entryX=0.5;entryY=0;entryDx=0;entryDy=0;strokeColor=#FF8987;startArrow=classic;startFill=1;" parent="1" source="uiweEr2TGew7m58Tf3AB-62" target="uiweEr2TGew7m58Tf3AB-94" edge="1">
          <mxGeometry relative="1" as="geometry" />
        </mxCell>
        <mxCell id="uiweEr2TGew7m58Tf3AB-62" value="flink-job&lt;br&gt;&lt;div style=&quot;text-align: left&quot;&gt;&lt;br&gt;&lt;/div&gt;&lt;div style=&quot;text-align: left&quot;&gt;算子：&lt;/div&gt;&lt;div style=&quot;text-align: left&quot;&gt;1.count&lt;/div&gt;&lt;div style=&quot;text-align: left&quot;&gt;2.sum&lt;/div&gt;&lt;div style=&quot;text-align: left&quot;&gt;3.list&lt;/div&gt;&lt;div style=&quot;text-align: left&quot;&gt;4.set&lt;/div&gt;&lt;div style=&quot;text-align: left&quot;&gt;5.....&lt;/div&gt;&lt;div style=&quot;text-align: left&quot;&gt;&lt;br&gt;&lt;/div&gt;&lt;div style=&quot;text-align: left&quot;&gt;（特征计算）&lt;/div&gt;" style="rounded=1;whiteSpace=wrap;html=1;fillColor=#cce5ff;strokeColor=#36393d;" parent="1" vertex="1">
          <mxGeometry x="2300" y="1987.82" width="100" height="150" as="geometry" />
        </mxCell>
        <mxCell id="uiweEr2TGew7m58Tf3AB-63" value="" style="endArrow=classic;html=1;fillColor=#ff8987;strokeColor=#ff8987;strokeWidth=2;" parent="1" edge="1">
          <mxGeometry width="50" height="50" relative="1" as="geometry">
            <mxPoint x="1906" y="1737.82" as="sourcePoint" />
            <mxPoint x="2086" y="1737.82" as="targetPoint" />
          </mxGeometry>
        </mxCell>
        <mxCell id="uiweEr2TGew7m58Tf3AB-64" value="&lt;font style=&quot;font-size: 10px&quot;&gt;表示数据流向&lt;/font&gt;" style="text;html=1;align=center;verticalAlign=middle;resizable=0;points=[];labelBackgroundColor=#ffffff;childText;" parent="uiweEr2TGew7m58Tf3AB-63" vertex="1" connectable="0">
          <mxGeometry x="0.0714" y="-1" relative="1" as="geometry">
            <mxPoint x="-5.47" y="-12.82" as="offset" />
          </mxGeometry>
        </mxCell>
        <mxCell id="uiweEr2TGew7m58Tf3AB-65" style="edgeStyle=orthogonalEdgeStyle;rounded=0;orthogonalLoop=1;jettySize=auto;html=1;exitX=1;exitY=0.5;exitDx=0;exitDy=0;exitPerimeter=0;entryX=0;entryY=0.5;entryDx=0;entryDy=0;fillColor=#ff8987;strokeColor=#ff8987;strokeWidth=2;" parent="1" source="uiweEr2TGew7m58Tf3AB-68" target="uiweEr2TGew7m58Tf3AB-53" edge="1">
          <mxGeometry relative="1" as="geometry">
            <mxPoint x="1923" y="2067.82" as="sourcePoint" />
          </mxGeometry>
        </mxCell>
        <mxCell id="uiweEr2TGew7m58Tf3AB-66" value="" style="endArrow=classic;html=1;fillColor=#ffcd5a;strokeColor=#ffcd5a;strokeWidth=2;" parent="1" edge="1">
          <mxGeometry width="50" height="50" relative="1" as="geometry">
            <mxPoint x="1906" y="1758.82" as="sourcePoint" />
            <mxPoint x="2086" y="1758.82" as="targetPoint" />
          </mxGeometry>
        </mxCell>
        <mxCell id="uiweEr2TGew7m58Tf3AB-67" value="表示各子服务配置变更" style="text;html=1;align=center;verticalAlign=middle;resizable=0;points=[];labelBackgroundColor=#ffffff;childText;" parent="uiweEr2TGew7m58Tf3AB-66" vertex="1" connectable="0">
          <mxGeometry x="0.0714" y="-1" relative="1" as="geometry">
            <mxPoint x="-5.47" y="-12.82" as="offset" />
          </mxGeometry>
        </mxCell>
        <mxCell id="uiweEr2TGew7m58Tf3AB-68" value="源数据&lt;br&gt;（埋点&lt;br&gt;/maserati&lt;br&gt;/后端json）" style="strokeWidth=2;html=1;shape=mxgraph.flowchart.direct_data;whiteSpace=wrap;" parent="1" vertex="1">
          <mxGeometry x="1890" y="2024.07" width="96" height="77.5" as="geometry" />
        </mxCell>
        <mxCell id="uiweEr2TGew7m58Tf3AB-69" value="用户行为数据topic" style="strokeWidth=2;html=1;shape=mxgraph.flowchart.direct_data;whiteSpace=wrap;" parent="1" vertex="1">
          <mxGeometry x="2157.5" y="2042.82" width="110" height="40" as="geometry" />
        </mxCell>
        <mxCell id="uiweEr2TGew7m58Tf3AB-70" style="edgeStyle=orthogonalEdgeStyle;rounded=0;orthogonalLoop=1;jettySize=auto;html=1;exitX=0.5;exitY=0;exitDx=0;exitDy=0;entryX=0.5;entryY=1;entryDx=0;entryDy=0;startArrow=classic;startFill=1;fillColor=#f8cecc;strokeColor=#FF8987;strokeWidth=2;" parent="1" source="uiweEr2TGew7m58Tf3AB-72" target="uiweEr2TGew7m58Tf3AB-90" edge="1">
          <mxGeometry relative="1" as="geometry">
            <mxPoint x="2548.125" y="1847.82" as="targetPoint" />
            <Array as="points">
              <mxPoint x="2742" y="1927.82" />
              <mxPoint x="2719" y="1927.82" />
            </Array>
          </mxGeometry>
        </mxCell>
        <mxCell id="uiweEr2TGew7m58Tf3AB-71" style="edgeStyle=orthogonalEdgeStyle;curved=1;rounded=0;orthogonalLoop=1;jettySize=auto;html=1;exitX=0.25;exitY=1;exitDx=0;exitDy=0;entryX=0.5;entryY=0;entryDx=0;entryDy=0;dashed=1;startArrow=none;startFill=0;strokeColor=#330000;strokeWidth=1;" parent="1" source="uiweEr2TGew7m58Tf3AB-72" target="uiweEr2TGew7m58Tf3AB-73" edge="1">
          <mxGeometry relative="1" as="geometry">
            <Array as="points">
              <mxPoint x="2718" y="2177.82" />
              <mxPoint x="2162" y="2177.82" />
            </Array>
          </mxGeometry>
        </mxCell>
        <mxCell id="uiweEr2TGew7m58Tf3AB-72" value="profile-service&lt;br&gt;（特征查询）" style="rounded=1;whiteSpace=wrap;html=1;fillColor=#cce5ff;strokeColor=#36393d;" parent="1" vertex="1">
          <mxGeometry x="2694" y="2027.82" width="96.25" height="70" as="geometry" />
        </mxCell>
        <mxCell id="uiweEr2TGew7m58Tf3AB-73" value="&lt;font style=&quot;font-size: 16px&quot;&gt;&lt;b&gt;CAT&lt;br&gt;(告警配置)&lt;/b&gt;&lt;/font&gt;" style="rounded=1;whiteSpace=wrap;html=1;fillColor=#ffecf1;strokeColor=#ff8987;" parent="1" vertex="1">
          <mxGeometry x="2081.5" y="2357.82" width="160" height="110" as="geometry" />
        </mxCell>
        <mxCell id="uiweEr2TGew7m58Tf3AB-74" value="" style="endArrow=classic;html=1;fillColor=#ffcd5a;strokeWidth=1;strokeColor=#330000;dashed=1;" parent="1" edge="1">
          <mxGeometry width="50" height="50" relative="1" as="geometry">
            <mxPoint x="1906" y="1777.82" as="sourcePoint" />
            <mxPoint x="2086" y="1777.82" as="targetPoint" />
          </mxGeometry>
        </mxCell>
        <mxCell id="uiweEr2TGew7m58Tf3AB-75" value="表示数据上报" style="text;html=1;align=center;verticalAlign=middle;resizable=0;points=[];labelBackgroundColor=#ffffff;childText;" parent="uiweEr2TGew7m58Tf3AB-74" vertex="1" connectable="0">
          <mxGeometry x="0.0714" y="-1" relative="1" as="geometry">
            <mxPoint x="-5.47" y="-12.82" as="offset" />
          </mxGeometry>
        </mxCell>
        <mxCell id="uiweEr2TGew7m58Tf3AB-76" value="HBase&lt;br style=&quot;font-size: 16px;&quot;&gt;特征存储" style="shape=cylinder;whiteSpace=wrap;html=1;boundedLbl=1;backgroundOutline=1;fontStyle=1;fontSize=16;" parent="1" vertex="1">
          <mxGeometry x="2500.87" y="2024.07" width="100.01" height="77.5" as="geometry" />
        </mxCell>
        <mxCell id="uiweEr2TGew7m58Tf3AB-77" value="离线特征处理链路" style="rounded=0;whiteSpace=wrap;html=1;dashed=1;shadow=0;fillColor=#d5e8d4;verticalAlign=top;strokeColor=#82b366;fontStyle=1;fontSize=16;align=right;" parent="1" vertex="1">
          <mxGeometry x="2444" y="2197.82" width="420" height="280" as="geometry" />
        </mxCell>
        <mxCell id="uiweEr2TGew7m58Tf3AB-78" style="edgeStyle=orthogonalEdgeStyle;rounded=0;orthogonalLoop=1;jettySize=auto;html=1;exitX=0.5;exitY=0;exitDx=0;exitDy=0;entryX=0.5;entryY=1;entryDx=0;entryDy=0;fillColor=#ff8987;strokeColor=#ff8987;strokeWidth=2;" parent="1" source="uiweEr2TGew7m58Tf3AB-79" target="uiweEr2TGew7m58Tf3AB-76" edge="1">
          <mxGeometry relative="1" as="geometry">
            <mxPoint x="2480" y="2457.82" as="targetPoint" />
          </mxGeometry>
        </mxCell>
        <mxCell id="uiweEr2TGew7m58Tf3AB-79" value="odps离线特征同步" style="rounded=1;whiteSpace=wrap;html=1;" parent="1" vertex="1">
          <mxGeometry x="2600.88" y="2217.82" width="110" height="60" as="geometry" />
        </mxCell>
        <mxCell id="uiweEr2TGew7m58Tf3AB-80" style="edgeStyle=orthogonalEdgeStyle;rounded=0;orthogonalLoop=1;jettySize=auto;html=1;exitX=0.5;exitY=0;exitDx=0;exitDy=0;entryX=0.5;entryY=1;entryDx=0;entryDy=0;" parent="1" source="uiweEr2TGew7m58Tf3AB-81" target="uiweEr2TGew7m58Tf3AB-79" edge="1">
          <mxGeometry relative="1" as="geometry" />
        </mxCell>
        <mxCell id="uiweEr2TGew7m58Tf3AB-81" value="离线特征处理框架&lt;br&gt;spark/udf" style="rounded=1;whiteSpace=wrap;html=1;" parent="1" vertex="1">
          <mxGeometry x="2585.88" y="2307.82" width="140" height="60" as="geometry" />
        </mxCell>
        <mxCell id="uiweEr2TGew7m58Tf3AB-82" style="edgeStyle=orthogonalEdgeStyle;rounded=0;orthogonalLoop=1;jettySize=auto;html=1;exitX=0;exitY=0.5;exitDx=0;exitDy=0;entryX=1;entryY=0.5;entryDx=0;entryDy=0;" parent="1" source="uiweEr2TGew7m58Tf3AB-83" target="uiweEr2TGew7m58Tf3AB-81" edge="1">
          <mxGeometry relative="1" as="geometry" />
        </mxCell>
        <mxCell id="uiweEr2TGew7m58Tf3AB-83" value="自定义算子" style="rounded=1;whiteSpace=wrap;html=1;" parent="1" vertex="1">
          <mxGeometry x="2754.38" y="2315.32" width="89.37" height="45" as="geometry" />
        </mxCell>
        <mxCell id="uiweEr2TGew7m58Tf3AB-84" style="edgeStyle=orthogonalEdgeStyle;rounded=0;orthogonalLoop=1;jettySize=auto;html=1;exitX=1;exitY=0.5;exitDx=0;exitDy=0;entryX=0;entryY=0.5;entryDx=0;entryDy=0;" parent="1" source="uiweEr2TGew7m58Tf3AB-85" target="uiweEr2TGew7m58Tf3AB-81" edge="1">
          <mxGeometry relative="1" as="geometry" />
        </mxCell>
        <mxCell id="uiweEr2TGew7m58Tf3AB-85" value="公共处理算子" style="rounded=1;whiteSpace=wrap;html=1;" parent="1" vertex="1">
          <mxGeometry x="2464" y="2315.32" width="90.63" height="45" as="geometry" />
        </mxCell>
        <mxCell id="uiweEr2TGew7m58Tf3AB-86" style="edgeStyle=orthogonalEdgeStyle;rounded=0;orthogonalLoop=1;jettySize=auto;html=1;exitX=0.5;exitY=0;exitDx=0;exitDy=0;entryX=0.5;entryY=1;entryDx=0;entryDy=0;" parent="1" source="uiweEr2TGew7m58Tf3AB-87" target="uiweEr2TGew7m58Tf3AB-81" edge="1">
          <mxGeometry relative="1" as="geometry" />
        </mxCell>
        <mxCell id="uiweEr2TGew7m58Tf3AB-87" value="基础特征表" style="rounded=1;whiteSpace=wrap;html=1;" parent="1" vertex="1">
          <mxGeometry x="2543.75" y="2407.82" width="100.63" height="50" as="geometry" />
        </mxCell>
        <mxCell id="uiweEr2TGew7m58Tf3AB-88" style="edgeStyle=orthogonalEdgeStyle;rounded=0;orthogonalLoop=1;jettySize=auto;html=1;exitX=0.5;exitY=0;exitDx=0;exitDy=0;entryX=0.5;entryY=1;entryDx=0;entryDy=0;" parent="1" source="uiweEr2TGew7m58Tf3AB-89" target="uiweEr2TGew7m58Tf3AB-81" edge="1">
          <mxGeometry relative="1" as="geometry" />
        </mxCell>
        <mxCell id="uiweEr2TGew7m58Tf3AB-89" value="业务特有特征表" style="rounded=1;whiteSpace=wrap;html=1;" parent="1" vertex="1">
          <mxGeometry x="2692.13" y="2407.82" width="100.63" height="50" as="geometry" />
        </mxCell>
        <mxCell id="uiweEr2TGew7m58Tf3AB-90" value="调用方" style="rounded=0;whiteSpace=wrap;html=1;dashed=1;shadow=0;fillColor=#d5e8d4;verticalAlign=bottom;strokeColor=#82b366;fontStyle=1;fontSize=16;" parent="1" vertex="1">
          <mxGeometry x="2574" y="1797.82" width="290" height="100" as="geometry" />
        </mxCell>
        <mxCell id="uiweEr2TGew7m58Tf3AB-91" value="推理服务" style="rounded=1;whiteSpace=wrap;html=1;fillColor=#cce5ff;strokeColor=#36393d;" parent="1" vertex="1">
          <mxGeometry x="2584" y="1817.82" width="70.38" height="50" as="geometry" />
        </mxCell>
        <mxCell id="uiweEr2TGew7m58Tf3AB-92" value="业务推荐引擎" style="rounded=1;whiteSpace=wrap;html=1;fillColor=#cce5ff;strokeColor=#36393d;" parent="1" vertex="1">
          <mxGeometry x="2667.75" y="1817.82" width="98.13" height="50" as="geometry" />
        </mxCell>
        <mxCell id="uiweEr2TGew7m58Tf3AB-93" value="其他服务" style="rounded=1;whiteSpace=wrap;html=1;fillColor=#cce5ff;strokeColor=#36393d;" parent="1" vertex="1">
          <mxGeometry x="2780.25" y="1817.82" width="73.75" height="50" as="geometry" />
        </mxCell>
        <mxCell id="uiweEr2TGew7m58Tf3AB-94" value="Tair&lt;br&gt;中间特征" style="shape=cylinder;whiteSpace=wrap;html=1;boundedLbl=1;backgroundOutline=1;" parent="1" vertex="1">
          <mxGeometry x="2313.75" y="2207.82" width="72.5" height="45" as="geometry" />
        </mxCell>
        <mxCell id="TpPOIZXhBfLt71gn-7qk-4" style="edgeStyle=orthogonalEdgeStyle;rounded=0;orthogonalLoop=1;jettySize=auto;html=1;exitX=1;exitY=0.5;exitDx=0;exitDy=0;exitPerimeter=0;entryX=0;entryY=0.5;entryDx=0;entryDy=0;strokeWidth=2;strokeColor=#FF8987;" edge="1" parent="1" source="TpPOIZXhBfLt71gn-7qk-1" target="TpPOIZXhBfLt71gn-7qk-2">
          <mxGeometry relative="1" as="geometry" />
        </mxCell>
        <mxCell id="TpPOIZXhBfLt71gn-7qk-1" value="特征数据topic" style="strokeWidth=2;html=1;shape=mxgraph.flowchart.direct_data;whiteSpace=wrap;" vertex="1" parent="1">
          <mxGeometry x="520" y="2579.64" width="90" height="40" as="geometry" />
        </mxCell>
        <mxCell id="TpPOIZXhBfLt71gn-7qk-13" style="edgeStyle=orthogonalEdgeStyle;rounded=0;orthogonalLoop=1;jettySize=auto;html=1;exitX=1;exitY=0.5;exitDx=0;exitDy=0;entryX=0.5;entryY=0;entryDx=0;entryDy=0;strokeColor=#FF8987;strokeWidth=2;" edge="1" parent="1" source="TpPOIZXhBfLt71gn-7qk-2" target="l5DUgXWPw0Alo5oeBkL1-39">
          <mxGeometry relative="1" as="geometry" />
        </mxCell>
        <mxCell id="TpPOIZXhBfLt71gn-7qk-2" value="kv-sink-service&lt;br&gt;（特征持久化）" style="rounded=1;whiteSpace=wrap;html=1;fillColor=#cce5ff;strokeColor=#36393d;" vertex="1" parent="1">
          <mxGeometry x="644" y="2564.64" width="126" height="70" as="geometry" />
        </mxCell>
        <mxCell id="TpPOIZXhBfLt71gn-7qk-7" style="edgeStyle=orthogonalEdgeStyle;rounded=0;orthogonalLoop=1;jettySize=auto;html=1;exitX=1;exitY=0.5;exitDx=0;exitDy=0;entryX=0;entryY=0.5;entryDx=0;entryDy=0;strokeWidth=1;" edge="1" parent="1" source="TpPOIZXhBfLt71gn-7qk-5" target="TpPOIZXhBfLt71gn-7qk-6">
          <mxGeometry relative="1" as="geometry" />
        </mxCell>
        <mxCell id="TpPOIZXhBfLt71gn-7qk-5" value="源数据表" style="rounded=1;whiteSpace=wrap;html=1;" vertex="1" parent="1">
          <mxGeometry x="10" y="2840" width="70" height="45" as="geometry" />
        </mxCell>
        <mxCell id="TpPOIZXhBfLt71gn-7qk-8" style="edgeStyle=orthogonalEdgeStyle;rounded=0;orthogonalLoop=1;jettySize=auto;html=1;exitX=1;exitY=0.5;exitDx=0;exitDy=0;entryX=0;entryY=0.5;entryDx=0;entryDy=0;strokeWidth=1;" edge="1" parent="1" source="TpPOIZXhBfLt71gn-7qk-6" target="l5DUgXWPw0Alo5oeBkL1-49">
          <mxGeometry relative="1" as="geometry" />
        </mxCell>
        <mxCell id="TpPOIZXhBfLt71gn-7qk-9" style="edgeStyle=orthogonalEdgeStyle;rounded=0;orthogonalLoop=1;jettySize=auto;html=1;exitX=1;exitY=0.5;exitDx=0;exitDy=0;entryX=0;entryY=0.5;entryDx=0;entryDy=0;strokeWidth=1;" edge="1" parent="1" source="TpPOIZXhBfLt71gn-7qk-6" target="l5DUgXWPw0Alo5oeBkL1-50">
          <mxGeometry relative="1" as="geometry" />
        </mxCell>
        <mxCell id="TpPOIZXhBfLt71gn-7qk-6" value="ODPS&lt;br&gt;离线特征处理框架&lt;br&gt;&lt;br&gt;&lt;div style=&quot;text-align: left&quot;&gt;&lt;span&gt;1.公共处理算子&lt;/span&gt;&lt;/div&gt;&lt;div style=&quot;text-align: left&quot;&gt;&lt;span&gt;2.自定义蒜子&lt;/span&gt;&lt;/div&gt;" style="rounded=1;whiteSpace=wrap;html=1;" vertex="1" parent="1">
          <mxGeometry x="117.81" y="2802.5" width="150.47" height="120" as="geometry" />
        </mxCell>
        <mxCell id="TpPOIZXhBfLt71gn-7qk-16" style="edgeStyle=orthogonalEdgeStyle;rounded=0;orthogonalLoop=1;jettySize=auto;html=1;exitX=1;exitY=0.5;exitDx=0;exitDy=0;entryX=0;entryY=0.5;entryDx=0;entryDy=0;entryPerimeter=0;startArrow=none;startFill=0;endArrow=classic;endFill=1;strokeColor=#FF8987;strokeWidth=2;" edge="1" parent="1" source="TpPOIZXhBfLt71gn-7qk-14" target="TpPOIZXhBfLt71gn-7qk-1">
          <mxGeometry relative="1" as="geometry" />
        </mxCell>
        <mxCell id="TpPOIZXhBfLt71gn-7qk-14" value="flink-sql" style="rounded=1;whiteSpace=wrap;html=1;fillColor=#cce5ff;strokeColor=#36393d;" vertex="1" parent="1">
          <mxGeometry x="360" y="2660" width="100" height="34.28" as="geometry" />
        </mxCell>
      </root>
    </mxGraphModel>
  </diagram>
</mxfile>
